<svg xmlns="http://www.w3.org/2000/svg" xmlns:xlink="http://www.w3.org/1999/xlink" width="309" zoomAndPan="magnify" viewBox="0 0 231.75 52.499999" height="70" preserveAspectRatio="xMidYMid meet" version="1.0"><defs><g/><clipPath id="3fc50f0165"><path d="M 3.617188 9.234375 L 37.59375 9.234375 L 37.59375 43.210938 L 3.617188 43.210938 Z M 3.617188 9.234375 " clip-rule="nonzero"/></clipPath><clipPath id="e267940b5a"><path d="M 20.605469 9.234375 C 11.222656 9.234375 3.617188 16.839844 3.617188 26.222656 C 3.617188 35.605469 11.222656 43.210938 20.605469 43.210938 C 29.988281 43.210938 37.59375 35.605469 37.59375 26.222656 C 37.59375 16.839844 29.988281 9.234375 20.605469 9.234375 Z M 20.605469 9.234375 " clip-rule="nonzero"/></clipPath><clipPath id="0c28de9491"><path d="M 10.730469 18.46875 L 13.617188 18.46875 L 13.617188 33.96875 L 10.730469 33.96875 Z M 10.730469 18.46875 " clip-rule="nonzero"/></clipPath><clipPath id="f786e0a723"><path d="M 10.730469 32.523438 L 10.730469 19.917969 C 10.730469 19.535156 10.882812 19.167969 11.15625 18.898438 C 11.425781 18.625 11.792969 18.472656 12.175781 18.472656 C 12.558594 18.472656 12.925781 18.625 13.195312 18.898438 C 13.464844 19.167969 13.617188 19.535156 13.617188 19.917969 L 13.617188 32.523438 C 13.617188 32.90625 13.464844 33.273438 13.195312 33.546875 C 12.925781 33.816406 12.558594 33.96875 12.175781 33.96875 C 11.792969 33.96875 11.425781 33.816406 11.15625 33.546875 C 10.882812 33.273438 10.730469 32.90625 10.730469 32.523438 Z M 10.730469 32.523438 " clip-rule="nonzero"/></clipPath><clipPath id="3fa136f006"><path d="M 14.976562 22.605469 L 17.863281 22.605469 L 17.863281 33.96875 L 14.976562 33.96875 Z M 14.976562 22.605469 " clip-rule="nonzero"/></clipPath><clipPath id="d72fa99bfe"><path d="M 14.976562 32.523438 L 14.976562 24.046875 C 14.976562 23.664062 15.128906 23.296875 15.402344 23.027344 C 15.671875 22.757812 16.039062 22.605469 16.421875 22.605469 C 16.804688 22.605469 17.171875 22.757812 17.441406 23.027344 C 17.710938 23.296875 17.863281 23.664062 17.863281 24.046875 L 17.863281 32.523438 C 17.863281 32.90625 17.710938 33.273438 17.441406 33.542969 C 17.171875 33.816406 16.804688 33.96875 16.421875 33.96875 C 16.039062 33.96875 15.671875 33.816406 15.402344 33.542969 C 15.128906 33.273438 14.976562 32.90625 14.976562 32.523438 Z M 14.976562 32.523438 " clip-rule="nonzero"/></clipPath><clipPath id="9dbb5fb4bb"><path d="M 19.164062 18.46875 L 22.046875 18.46875 L 22.046875 33.96875 L 19.164062 33.96875 Z M 19.164062 18.46875 " clip-rule="nonzero"/></clipPath><clipPath id="a295aa7574"><path d="M 19.164062 32.523438 L 19.164062 19.917969 C 19.164062 19.535156 19.316406 19.167969 19.585938 18.898438 C 19.855469 18.625 20.222656 18.472656 20.605469 18.472656 C 20.988281 18.472656 21.355469 18.625 21.625 18.898438 C 21.898438 19.167969 22.046875 19.535156 22.046875 19.917969 L 22.046875 32.523438 C 22.046875 32.90625 21.898438 33.273438 21.625 33.546875 C 21.355469 33.816406 20.988281 33.96875 20.605469 33.96875 C 20.222656 33.96875 19.855469 33.816406 19.585938 33.546875 C 19.316406 33.273438 19.164062 32.90625 19.164062 32.523438 Z M 19.164062 32.523438 " clip-rule="nonzero"/></clipPath><clipPath id="fb060acb47"><path d="M 23.195312 22.605469 L 26.082031 22.605469 L 26.082031 33.96875 L 23.195312 33.96875 Z M 23.195312 22.605469 " clip-rule="nonzero"/></clipPath><clipPath id="cd79828816"><path d="M 23.195312 32.523438 L 23.195312 24.046875 C 23.195312 23.664062 23.347656 23.296875 23.617188 23.027344 C 23.890625 22.757812 24.257812 22.605469 24.640625 22.605469 C 25.019531 22.605469 25.386719 22.757812 25.660156 23.027344 C 25.929688 23.296875 26.082031 23.664062 26.082031 24.046875 L 26.082031 32.523438 C 26.082031 32.90625 25.929688 33.273438 25.660156 33.542969 C 25.386719 33.816406 25.019531 33.96875 24.640625 33.96875 C 24.257812 33.96875 23.890625 33.816406 23.617188 33.542969 C 23.347656 33.273438 23.195312 32.90625 23.195312 32.523438 Z M 23.195312 32.523438 " clip-rule="nonzero"/></clipPath><clipPath id="3d8ac23608"><path d="M 27.230469 18.46875 L 30.117188 18.46875 L 30.117188 33.96875 L 27.230469 33.96875 Z M 27.230469 18.46875 " clip-rule="nonzero"/></clipPath><clipPath id="442b8c30ef"><path d="M 27.230469 32.523438 L 27.230469 19.917969 C 27.230469 19.535156 27.382812 19.167969 27.652344 18.898438 C 27.921875 18.625 28.289062 18.472656 28.671875 18.472656 C 29.054688 18.472656 29.421875 18.625 29.691406 18.898438 C 29.964844 19.167969 30.117188 19.535156 30.117188 19.917969 L 30.117188 32.523438 C 30.117188 32.90625 29.964844 33.273438 29.691406 33.546875 C 29.421875 33.816406 29.054688 33.96875 28.671875 33.96875 C 28.289062 33.96875 27.921875 33.816406 27.652344 33.546875 C 27.382812 33.273438 27.230469 32.90625 27.230469 32.523438 Z M 27.230469 32.523438 " clip-rule="nonzero"/></clipPath></defs><g clip-path="url(#3fc50f0165)"><g clip-path="url(#e267940b5a)"><path fill="#00a6fb" d="M 3.617188 9.234375 L 37.59375 9.234375 L 37.59375 43.210938 L 3.617188 43.210938 Z M 3.617188 9.234375 " fill-opacity="1" fill-rule="nonzero"/></g></g><g clip-path="url(#0c28de9491)"><g clip-path="url(#f786e0a723)"><path fill="#ffffff" d="M 10.730469 33.96875 L 10.730469 18.480469 L 13.617188 18.480469 L 13.617188 33.96875 Z M 10.730469 33.96875 " fill-opacity="1" fill-rule="nonzero"/></g></g><g clip-path="url(#3fa136f006)"><g clip-path="url(#d72fa99bfe)"><path fill="#ffffff" d="M 14.976562 33.96875 L 14.976562 22.605469 L 17.863281 22.605469 L 17.863281 33.96875 Z M 14.976562 33.96875 " fill-opacity="1" fill-rule="nonzero"/></g></g><g clip-path="url(#9dbb5fb4bb)"><g clip-path="url(#a295aa7574)"><path fill="#ffffff" d="M 19.164062 33.96875 L 19.164062 18.480469 L 22.046875 18.480469 L 22.046875 33.96875 Z M 19.164062 33.96875 " fill-opacity="1" fill-rule="nonzero"/></g></g><g clip-path="url(#fb060acb47)"><g clip-path="url(#cd79828816)"><path fill="#ffffff" d="M 23.195312 33.96875 L 23.195312 22.605469 L 26.082031 22.605469 L 26.082031 33.96875 Z M 23.195312 33.96875 " fill-opacity="1" fill-rule="nonzero"/></g></g><g clip-path="url(#3d8ac23608)"><g clip-path="url(#442b8c30ef)"><path fill="#ffffff" d="M 27.230469 33.96875 L 27.230469 18.480469 L 30.117188 18.480469 L 30.117188 33.96875 Z M 27.230469 33.96875 " fill-opacity="1" fill-rule="nonzero"/></g></g><g fill="#00a6fb" fill-opacity="1"><g transform="translate(42.032186, 33.351732)"><g><path d="M 12.359375 -21.28125 L 20.953125 0 L 15.734375 0 L 14.15625 -4.25 L 6.0625 -4.25 L 4.484375 0 L -0.71875 0 L 7.875 -21.28125 Z M 12.515625 -8.515625 L 10.140625 -14.703125 L 10.09375 -14.703125 L 7.71875 -8.515625 Z M 12.515625 -8.515625 "/></g></g></g><g fill="#00a6fb" fill-opacity="1"><g transform="translate(62.260053, 33.351732)"><g><path d="M 6.390625 -21.28125 L 6.390625 -4.25 L 13.71875 -4.25 L 13.71875 0 L 1.546875 0 L 1.546875 -21.28125 Z M 6.390625 -21.28125 "/></g></g></g><g fill="#00a6fb" fill-opacity="1"><g transform="translate(76.837527, 33.351732)"><g><path d="M 6.390625 -21.28125 L 6.390625 -4.25 L 13.71875 -4.25 L 13.71875 0 L 1.546875 0 L 1.546875 -21.28125 Z M 6.390625 -21.28125 "/></g></g></g><g fill="#00a6fb" fill-opacity="1"><g transform="translate(91.415001, 33.351732)"><g><path d="M 0.203125 -17.03125 L 0.203125 -21.28125 L 15.171875 -21.28125 L 15.171875 -17.03125 L 10.109375 -17.03125 L 10.109375 0 L 5.265625 0 L 5.265625 -17.03125 Z M 0.203125 -17.03125 "/></g></g></g><g fill="#00a6fb" fill-opacity="1"><g transform="translate(106.792316, 33.351732)"><g><path d="M 6.390625 -21.28125 L 6.390625 0 L 1.546875 0 L 1.546875 -21.28125 Z M 6.390625 -21.28125 "/></g></g></g><g fill="#00a6fb" fill-opacity="1"><g transform="translate(114.764543, 33.351732)"><g/></g></g><g fill="#ffffff" fill-opacity="1"><g transform="translate(108.908314, 33.136899)"><g><path d="M 9.609375 -14.609375 C 8.210938 -14.609375 7.128906 -14.085938 6.359375 -13.046875 C 5.597656 -12.003906 5.21875 -10.546875 5.21875 -8.671875 C 5.21875 -4.785156 6.679688 -2.84375 9.609375 -2.84375 C 10.828125 -2.84375 12.3125 -3.148438 14.0625 -3.765625 L 14.0625 -0.65625 C 12.625 -0.0625 11.023438 0.234375 9.265625 0.234375 C 6.722656 0.234375 4.78125 -0.53125 3.4375 -2.0625 C 2.09375 -3.601562 1.421875 -5.816406 1.421875 -8.703125 C 1.421875 -10.515625 1.75 -12.101562 2.40625 -13.46875 C 3.070312 -14.832031 4.019531 -15.878906 5.25 -16.609375 C 6.488281 -17.335938 7.941406 -17.703125 9.609375 -17.703125 C 11.296875 -17.703125 13 -17.289062 14.71875 -16.46875 L 13.515625 -13.453125 C 12.867188 -13.765625 12.210938 -14.035156 11.546875 -14.265625 C 10.890625 -14.492188 10.242188 -14.609375 9.609375 -14.609375 Z M 9.609375 -14.609375 "/></g></g></g><g fill="#ffffff" fill-opacity="1"><g transform="translate(124.476062, 33.136899)"><g><path d="M 18.03125 -8.75 C 18.03125 -5.863281 17.3125 -3.644531 15.875 -2.09375 C 14.445312 -0.539062 12.394531 0.234375 9.71875 0.234375 C 7.050781 0.234375 5 -0.539062 3.5625 -2.09375 C 2.132812 -3.644531 1.421875 -5.867188 1.421875 -8.765625 C 1.421875 -11.671875 2.140625 -13.890625 3.578125 -15.421875 C 5.015625 -16.953125 7.070312 -17.71875 9.75 -17.71875 C 12.425781 -17.71875 14.472656 -16.945312 15.890625 -15.40625 C 17.316406 -13.863281 18.03125 -11.644531 18.03125 -8.75 Z M 5.296875 -8.75 C 5.296875 -6.800781 5.664062 -5.332031 6.40625 -4.34375 C 7.144531 -3.351562 8.25 -2.859375 9.71875 -2.859375 C 12.675781 -2.859375 14.15625 -4.820312 14.15625 -8.75 C 14.15625 -12.675781 12.6875 -14.640625 9.75 -14.640625 C 8.28125 -14.640625 7.171875 -14.144531 6.421875 -13.15625 C 5.671875 -12.164062 5.296875 -10.695312 5.296875 -8.75 Z M 5.296875 -8.75 "/></g></g></g><g fill="#ffffff" fill-opacity="1"><g transform="translate(143.920834, 33.136899)"><g><path d="M 17.671875 0 L 12.96875 0 L 5.375 -13.203125 L 5.28125 -13.203125 C 5.425781 -10.867188 5.5 -9.203125 5.5 -8.203125 L 5.5 0 L 2.203125 0 L 2.203125 -17.4375 L 6.859375 -17.4375 L 14.4375 -4.375 L 14.515625 -4.375 C 14.398438 -6.644531 14.34375 -8.25 14.34375 -9.1875 L 14.34375 -17.4375 L 17.671875 -17.4375 Z M 17.671875 0 "/></g></g></g><g fill="#ffffff" fill-opacity="1"><g transform="translate(163.783133, 33.136899)"><g><path d="M 8.921875 0 L 5.21875 0 L 5.21875 -14.359375 L 0.484375 -14.359375 L 0.484375 -17.4375 L 13.65625 -17.4375 L 13.65625 -14.359375 L 8.921875 -14.359375 Z M 8.921875 0 "/></g></g></g><g fill="#ffffff" fill-opacity="1"><g transform="translate(177.931292, 33.136899)"><g><path d="M 5.890625 -9.703125 L 7.09375 -9.703125 C 8.257812 -9.703125 9.117188 -9.894531 9.671875 -10.28125 C 10.234375 -10.675781 10.515625 -11.289062 10.515625 -12.125 C 10.515625 -12.945312 10.226562 -13.535156 9.65625 -13.890625 C 9.09375 -14.242188 8.210938 -14.421875 7.015625 -14.421875 L 5.890625 -14.421875 Z M 5.890625 -6.6875 L 5.890625 0 L 2.203125 0 L 2.203125 -17.4375 L 7.28125 -17.4375 C 9.644531 -17.4375 11.394531 -17.003906 12.53125 -16.140625 C 13.675781 -15.285156 14.25 -13.976562 14.25 -12.21875 C 14.25 -11.1875 13.960938 -10.269531 13.390625 -9.46875 C 12.828125 -8.675781 12.03125 -8.050781 11 -7.59375 C 13.625 -3.675781 15.332031 -1.144531 16.125 0 L 12.03125 0 L 7.859375 -6.6875 Z M 5.890625 -6.6875 "/></g></g></g><g fill="#ffffff" fill-opacity="1"><g transform="translate(194.059717, 33.136899)"><g><path d="M 18.03125 -8.75 C 18.03125 -5.863281 17.3125 -3.644531 15.875 -2.09375 C 14.445312 -0.539062 12.394531 0.234375 9.71875 0.234375 C 7.050781 0.234375 5 -0.539062 3.5625 -2.09375 C 2.132812 -3.644531 1.421875 -5.867188 1.421875 -8.765625 C 1.421875 -11.671875 2.140625 -13.890625 3.578125 -15.421875 C 5.015625 -16.953125 7.070312 -17.71875 9.75 -17.71875 C 12.425781 -17.71875 14.472656 -16.945312 15.890625 -15.40625 C 17.316406 -13.863281 18.03125 -11.644531 18.03125 -8.75 Z M 5.296875 -8.75 C 5.296875 -6.800781 5.664062 -5.332031 6.40625 -4.34375 C 7.144531 -3.351562 8.25 -2.859375 9.71875 -2.859375 C 12.675781 -2.859375 14.15625 -4.820312 14.15625 -8.75 C 14.15625 -12.675781 12.6875 -14.640625 9.75 -14.640625 C 8.28125 -14.640625 7.171875 -14.144531 6.421875 -13.15625 C 5.671875 -12.164062 5.296875 -10.695312 5.296875 -8.75 Z M 5.296875 -8.75 "/></g></g></g><g fill="#ffffff" fill-opacity="1"><g transform="translate(213.50449, 33.136899)"><g><path d="M 2.203125 0 L 2.203125 -17.4375 L 5.890625 -17.4375 L 5.890625 -3.0625 L 12.96875 -3.0625 L 12.96875 0 Z M 2.203125 0 "/></g></g></g></svg>