<svg xmlns="http://www.w3.org/2000/svg" xmlns:xlink="http://www.w3.org/1999/xlink" width="309" zoomAndPan="magnify" viewBox="0 0 231.75 52.499999" height="70" preserveAspectRatio="xMidYMid meet" version="1.0"><defs><g/><clipPath id="9c4a5a7229"><path d="M 3 0.9375 L 55.679688 0.9375 L 55.679688 32 L 3 32 Z M 3 0.9375 " clip-rule="nonzero"/></clipPath><clipPath id="5c806a43cf"><path d="M 23 35 L 41 35 L 41 50.714844 L 23 50.714844 Z M 23 35 " clip-rule="nonzero"/></clipPath></defs><g fill="#ffffff" fill-opacity="1"><g transform="translate(59.092086, 34.176637)"><g><path d="M 0.234375 -19.609375 L 0.234375 -24.515625 L 17.46875 -24.515625 L 17.46875 -19.609375 L 11.65625 -19.609375 L 11.65625 0 L 6.0625 0 L 6.0625 -19.609375 Z M 0.234375 -19.609375 "/></g></g></g><g fill="#ffffff" fill-opacity="1"><g transform="translate(76.803391, 34.176637)"><g><path d="M 15.8125 -24.515625 L 15.8125 -19.609375 L 7.375 -19.609375 L 7.375 -14.734375 L 15.453125 -14.734375 L 15.453125 -9.84375 L 7.375 -9.84375 L 7.375 -4.90625 L 15.8125 -4.90625 L 15.8125 0 L 1.78125 0 L 1.78125 -24.515625 Z M 15.8125 -24.515625 "/></g></g></g><g fill="#ffffff" fill-opacity="1"><g transform="translate(94.039226, 34.176637)"><g><path d="M 14.828125 -5.046875 C 15.679688 -5.046875 16.507812 -5.175781 17.3125 -5.4375 C 18.113281 -5.695312 18.703125 -5.945312 19.078125 -6.1875 L 19.640625 -6.5625 L 22.015625 -1.8125 C 21.941406 -1.75 21.832031 -1.664062 21.6875 -1.5625 C 21.550781 -1.46875 21.226562 -1.285156 20.71875 -1.015625 C 20.21875 -0.753906 19.679688 -0.523438 19.109375 -0.328125 C 18.535156 -0.128906 17.78125 0.046875 16.84375 0.203125 C 15.914062 0.367188 14.957031 0.453125 13.96875 0.453125 C 11.6875 0.453125 9.523438 -0.101562 7.484375 -1.21875 C 5.441406 -2.34375 3.796875 -3.882812 2.546875 -5.84375 C 1.304688 -7.8125 0.6875 -9.9375 0.6875 -12.21875 C 0.6875 -13.9375 1.050781 -15.585938 1.78125 -17.171875 C 2.507812 -18.765625 3.484375 -20.125 4.703125 -21.25 C 5.921875 -22.375 7.34375 -23.273438 8.96875 -23.953125 C 10.59375 -24.628906 12.257812 -24.96875 13.96875 -24.96875 C 15.550781 -24.96875 17.007812 -24.773438 18.34375 -24.390625 C 19.6875 -24.015625 20.632812 -23.640625 21.1875 -23.265625 L 22.015625 -22.703125 L 19.640625 -17.953125 C 19.503906 -18.066406 19.296875 -18.207031 19.015625 -18.375 C 18.742188 -18.550781 18.191406 -18.773438 17.359375 -19.046875 C 16.523438 -19.328125 15.679688 -19.46875 14.828125 -19.46875 C 13.484375 -19.46875 12.273438 -19.25 11.203125 -18.8125 C 10.128906 -18.375 9.28125 -17.796875 8.65625 -17.078125 C 8.039062 -16.367188 7.566406 -15.601562 7.234375 -14.78125 C 6.910156 -13.957031 6.75 -13.125 6.75 -12.28125 C 6.75 -10.414062 7.445312 -8.742188 8.84375 -7.265625 C 10.238281 -5.785156 12.234375 -5.046875 14.828125 -5.046875 Z M 14.828125 -5.046875 "/></g></g></g><g fill="#ffffff" fill-opacity="1"><g transform="translate(116.416085, 34.176637)"><g><path d="M 7.375 -9.84375 L 7.375 0 L 1.78125 0 L 1.78125 -24.515625 L 7.375 -24.515625 L 7.375 -14.734375 L 15.28125 -14.734375 L 15.28125 -24.515625 L 20.859375 -24.515625 L 20.859375 0 L 15.28125 0 L 15.28125 -9.84375 Z M 7.375 -9.84375 "/></g></g></g><g fill="#ffffff" fill-opacity="1"><g transform="translate(139.060397, 34.176637)"><g/></g></g><g fill="#ffffff" fill-opacity="1"><g transform="translate(147.17312, 34.176637)"><g><path d="M 0.6875 -12.28125 C 0.6875 -15.820312 1.894531 -18.820312 4.3125 -21.28125 C 6.726562 -23.738281 9.640625 -24.96875 13.046875 -24.96875 C 16.472656 -24.96875 19.382812 -23.742188 21.78125 -21.296875 C 24.175781 -18.847656 25.375 -15.84375 25.375 -12.28125 C 25.375 -8.6875 24.195312 -5.664062 21.84375 -3.21875 C 19.488281 -0.769531 16.554688 0.453125 13.046875 0.453125 C 9.460938 0.453125 6.503906 -0.757812 4.171875 -3.1875 C 1.847656 -5.613281 0.6875 -8.644531 0.6875 -12.28125 Z M 6.71875 -12.28125 C 6.71875 -10.988281 6.914062 -9.8125 7.3125 -8.75 C 7.707031 -7.6875 8.398438 -6.789062 9.390625 -6.0625 C 10.378906 -5.332031 11.597656 -4.96875 13.046875 -4.96875 C 15.128906 -4.96875 16.695312 -5.679688 17.75 -7.109375 C 18.8125 -8.535156 19.34375 -10.257812 19.34375 -12.28125 C 19.34375 -14.28125 18.800781 -15.992188 17.71875 -17.421875 C 16.644531 -18.859375 15.085938 -19.578125 13.046875 -19.578125 C 11.023438 -19.578125 9.460938 -18.859375 8.359375 -17.421875 C 7.265625 -15.992188 6.71875 -14.28125 6.71875 -12.28125 Z M 6.71875 -12.28125 "/></g></g></g><g fill="#ffffff" fill-opacity="1"><g transform="translate(173.234889, 34.176637)"><g><path d="M 10.8125 -24.96875 C 12.144531 -24.96875 13.441406 -24.769531 14.703125 -24.375 C 15.972656 -23.988281 16.914062 -23.609375 17.53125 -23.234375 L 18.421875 -22.640625 L 16.171875 -18.1875 C 15.992188 -18.300781 15.742188 -18.453125 15.421875 -18.640625 C 15.109375 -18.835938 14.515625 -19.09375 13.640625 -19.40625 C 12.765625 -19.71875 11.953125 -19.875 11.203125 -19.875 C 10.273438 -19.875 9.554688 -19.675781 9.046875 -19.28125 C 8.546875 -18.882812 8.296875 -18.351562 8.296875 -17.6875 C 8.296875 -17.34375 8.410156 -17.023438 8.640625 -16.734375 C 8.878906 -16.453125 9.285156 -16.144531 9.859375 -15.8125 C 10.441406 -15.488281 10.945312 -15.226562 11.375 -15.03125 C 11.8125 -14.832031 12.488281 -14.535156 13.40625 -14.140625 C 14.988281 -13.472656 16.335938 -12.554688 17.453125 -11.390625 C 18.578125 -10.234375 19.140625 -8.921875 19.140625 -7.453125 C 19.140625 -6.046875 18.882812 -4.816406 18.375 -3.765625 C 17.875 -2.722656 17.179688 -1.90625 16.296875 -1.3125 C 15.421875 -0.71875 14.445312 -0.273438 13.375 0.015625 C 12.300781 0.304688 11.140625 0.453125 9.890625 0.453125 C 8.828125 0.453125 7.78125 0.34375 6.75 0.125 C 5.71875 -0.09375 4.851562 -0.363281 4.15625 -0.6875 C 3.46875 -1.019531 2.84375 -1.34375 2.28125 -1.65625 C 1.726562 -1.976562 1.320312 -2.25 1.0625 -2.46875 L 0.6875 -2.796875 L 3.484375 -7.484375 C 3.710938 -7.285156 4.035156 -7.03125 4.453125 -6.71875 C 4.867188 -6.414062 5.609375 -6.003906 6.671875 -5.484375 C 7.734375 -4.972656 8.671875 -4.71875 9.484375 -4.71875 C 11.835938 -4.71875 13.015625 -5.519531 13.015625 -7.125 C 13.015625 -7.46875 12.929688 -7.78125 12.765625 -8.0625 C 12.597656 -8.351562 12.300781 -8.640625 11.875 -8.921875 C 11.445312 -9.210938 11.066406 -9.441406 10.734375 -9.609375 C 10.410156 -9.773438 9.878906 -10.03125 9.140625 -10.375 C 8.398438 -10.726562 7.847656 -10.992188 7.484375 -11.171875 C 6.003906 -11.910156 4.859375 -12.828125 4.046875 -13.921875 C 3.234375 -15.023438 2.828125 -16.207031 2.828125 -17.46875 C 2.828125 -19.664062 3.640625 -21.460938 5.265625 -22.859375 C 6.890625 -24.265625 8.738281 -24.96875 10.8125 -24.96875 Z M 10.8125 -24.96875 "/></g></g></g><g clip-path="url(#9c4a5a7229)"><path fill="#ffffff" d="M 44.8125 12.175781 C 42.578125 5.816406 34.582031 3.433594 29.226562 7.792969 C 27.402344 3.652344 23.273438 0.929688 18.691406 0.929688 C 9.675781 0.929688 4.238281 10.828125 8.824219 18.398438 C 5.574219 18.914062 3.082031 21.742188 3.082031 25.132812 C 3.082031 28.890625 6.140625 31.949219 9.898438 31.949219 L 14.109375 31.949219 C 14.4375 31.949219 14.707031 31.683594 14.707031 31.351562 C 14.707031 31.023438 14.4375 30.757812 14.109375 30.757812 L 9.898438 30.757812 C 6.796875 30.757812 4.273438 28.234375 4.273438 25.132812 C 4.273438 20.328125 9.953125 17.722656 13.574219 20.902344 C 13.820312 21.117188 14.199219 21.097656 14.417969 20.847656 C 14.632812 20.601562 14.609375 20.222656 14.363281 20.003906 C 13.207031 18.988281 11.742188 18.40625 10.210938 18.328125 C 5.496094 11.550781 10.335938 2.121094 18.691406 2.121094 C 23.058594 2.121094 26.972656 4.886719 28.425781 9.003906 C 28.570312 9.417969 29.09375 9.53125 29.402344 9.234375 C 33.90625 4.859375 41.367188 6.578125 43.59375 12.316406 C 41.648438 12.652344 39.847656 13.554688 38.40625 14.949219 C 38.171875 15.179688 38.164062 15.558594 38.394531 15.792969 C 38.625 16.035156 39.003906 16.035156 39.238281 15.808594 C 40.941406 14.15625 43.136719 13.355469 45.296875 13.355469 C 50.097656 13.355469 54 17.257812 54 22.050781 C 54 26.851562 50.097656 30.757812 45.296875 30.757812 L 43.371094 30.757812 C 43.042969 30.757812 42.773438 31.023438 42.773438 31.351562 C 42.773438 31.683594 43.042969 31.949219 43.371094 31.949219 L 45.296875 31.949219 C 50.753906 31.949219 55.195312 27.507812 55.195312 22.050781 C 55.195312 16.351562 50.347656 11.902344 44.8125 12.175781 Z M 44.8125 12.175781 " fill-opacity="1" fill-rule="nonzero"/></g><path fill="#ffffff" d="M 19.273438 5.710938 C 19.269531 5.386719 19.003906 5.125 18.675781 5.125 C 18.347656 5.207031 14.597656 4.894531 13.023438 8.375 C 12.886719 8.675781 13.019531 9.027344 13.320312 9.164062 C 13.621094 9.296875 13.972656 9.167969 14.109375 8.867188 C 14.867188 7.191406 16.363281 6.359375 18.6875 6.320312 C 19.019531 6.3125 19.28125 6.042969 19.273438 5.710938 Z M 19.273438 5.710938 " fill-opacity="1" fill-rule="nonzero"/><path fill="#ffffff" d="M 38.320312 29.644531 L 38.320312 25.753906 C 38.320312 25.15625 38.566406 24.566406 38.996094 24.136719 L 39.855469 23.277344 C 40.089844 23.046875 40.089844 22.667969 39.855469 22.433594 C 39.625 22.203125 39.246094 22.203125 39.011719 22.433594 L 38.152344 23.292969 C 37.503906 23.945312 37.128906 24.84375 37.128906 25.753906 L 37.128906 29.644531 C 37.128906 29.972656 37.394531 30.242188 37.722656 30.242188 C 38.054688 30.242188 38.320312 29.972656 38.320312 29.644531 Z M 38.320312 29.644531 " fill-opacity="1" fill-rule="nonzero"/><path fill="#ffffff" d="M 31.398438 28.960938 C 31.726562 28.960938 31.996094 28.691406 31.996094 28.363281 L 31.996094 24.335938 C 31.996094 23.003906 30.90625 21.917969 29.570312 21.917969 L 29.109375 21.917969 C 28.429688 21.917969 27.875 21.363281 27.875 20.683594 L 27.875 19.753906 C 27.875 19.425781 27.605469 19.15625 27.277344 19.15625 C 26.949219 19.15625 26.679688 19.425781 26.679688 19.753906 L 26.679688 20.683594 C 26.679688 22.023438 27.769531 23.113281 29.109375 23.113281 L 29.570312 23.113281 C 30.25 23.113281 30.800781 23.660156 30.800781 24.335938 L 30.800781 28.363281 C 30.800781 28.691406 31.070312 28.960938 31.398438 28.960938 Z M 31.398438 28.960938 " fill-opacity="1" fill-rule="nonzero"/><path fill="#ffffff" d="M 22.550781 25.464844 L 22.550781 28.964844 C 22.550781 29.296875 22.816406 29.5625 23.148438 29.5625 C 23.476562 29.5625 23.742188 29.296875 23.742188 28.964844 L 23.742188 24.867188 C 23.742188 24.539062 23.476562 24.273438 23.148438 24.273438 L 17.894531 24.273438 C 17.566406 24.273438 17.300781 24.539062 17.300781 24.867188 C 17.300781 25.199219 17.566406 25.464844 17.894531 25.464844 Z M 22.550781 25.464844 " fill-opacity="1" fill-rule="nonzero"/><path fill="#ffffff" d="M 44.554688 19.621094 C 44.554688 18.414062 43.574219 17.433594 42.367188 17.433594 C 41.160156 17.433594 40.179688 18.414062 40.179688 19.621094 C 40.179688 20.828125 41.160156 21.808594 42.367188 21.808594 C 43.574219 21.808594 44.554688 20.828125 44.554688 19.621094 Z M 41.371094 19.621094 C 41.371094 19.074219 41.820312 18.628906 42.367188 18.628906 C 42.917969 18.628906 43.363281 19.074219 43.363281 19.621094 C 43.363281 20.171875 42.917969 20.617188 42.367188 20.617188 C 41.820312 20.617188 41.371094 20.171875 41.371094 19.621094 Z M 41.371094 19.621094 " fill-opacity="1" fill-rule="nonzero"/><path fill="#ffffff" d="M 27.277344 13.191406 C 26.070312 13.191406 25.089844 14.171875 25.089844 15.378906 C 25.089844 16.585938 26.070312 17.566406 27.277344 17.566406 C 28.484375 17.566406 29.464844 16.585938 29.464844 15.378906 C 29.464844 14.171875 28.484375 13.191406 27.277344 13.191406 Z M 27.277344 16.375 C 26.726562 16.375 26.28125 15.929688 26.28125 15.378906 C 26.28125 14.832031 26.726562 14.386719 27.277344 14.386719 C 27.824219 14.386719 28.269531 14.832031 28.269531 15.378906 C 28.269531 15.929688 27.824219 16.375 27.277344 16.375 Z M 27.277344 16.375 " fill-opacity="1" fill-rule="nonzero"/><path fill="#ffffff" d="M 13.515625 22.683594 C 12.308594 22.683594 11.328125 23.664062 11.328125 24.871094 C 11.328125 26.078125 12.308594 27.058594 13.515625 27.058594 C 14.722656 27.058594 15.703125 26.078125 15.703125 24.871094 C 15.703125 23.664062 14.722656 22.683594 13.515625 22.683594 Z M 13.515625 25.867188 C 12.96875 25.867188 12.523438 25.417969 12.523438 24.871094 C 12.523438 24.324219 12.96875 23.875 13.515625 23.875 C 14.066406 23.875 14.511719 24.324219 14.511719 24.871094 C 14.511719 25.417969 14.066406 25.867188 13.515625 25.867188 Z M 13.515625 25.867188 " fill-opacity="1" fill-rule="nonzero"/><path fill="#ffffff" d="M 41.574219 36.6875 C 41.570312 36.679688 41.574219 36.667969 41.574219 36.660156 C 41.5625 36.582031 41.269531 34.707031 39.210938 32.914062 C 37.109375 31.082031 34.644531 31.488281 34.539062 31.507812 C 34.484375 31.519531 34.441406 31.542969 34.394531 31.566406 C 33.15625 30.652344 31.945312 30.488281 30.429688 30.566406 C 30.097656 30.585938 29.847656 30.867188 29.863281 31.195312 C 29.882812 31.527344 30.1875 31.78125 30.492188 31.757812 C 30.769531 31.746094 31.085938 31.738281 31.441406 31.753906 C 33.6875 31.832031 34.703125 33.582031 34.742188 33.65625 C 34.902344 33.945312 35.265625 34.046875 35.554688 33.890625 C 35.84375 33.730469 35.949219 33.367188 35.789062 33.078125 C 35.773438 33.054688 35.679688 32.890625 35.503906 32.65625 C 36.238281 32.691406 37.386719 32.910156 38.429688 33.816406 C 39.339844 34.609375 39.832031 35.402344 40.097656 35.984375 C 39.898438 35.933594 39.699219 35.886719 39.484375 35.871094 C 39.164062 35.84375 38.867188 36.085938 38.839844 36.414062 C 38.8125 36.742188 39.058594 37.03125 39.386719 37.058594 C 40.171875 37.125 40.847656 37.492188 41.394531 38.148438 C 42.632812 39.640625 42.089844 41.589844 41.242188 42.804688 C 40.96875 43.203125 41.257812 43.742188 41.734375 43.742188 C 41.921875 43.742188 42.109375 43.652344 42.222656 43.484375 C 43.773438 41.253906 43.789062 38.386719 41.574219 36.6875 Z M 41.574219 36.6875 " fill-opacity="1" fill-rule="nonzero"/><path fill="#ffffff" d="M 23.554688 43.566406 C 20.789062 43.453125 19.316406 42.644531 18.914062 41.027344 C 18.285156 38.492188 19.464844 36.957031 20.21875 36.269531 C 20.398438 36.109375 20.679688 35.941406 20.949219 35.792969 C 21.125 36.851562 21.738281 37.625 21.773438 37.667969 C 21.980469 37.925781 22.355469 37.964844 22.613281 37.757812 C 22.867188 37.550781 22.910156 37.175781 22.699219 36.917969 C 22.691406 36.910156 21.917969 35.910156 22.132812 34.867188 C 22.273438 34.183594 22.820312 33.589844 23.757812 33.097656 C 26.875 31.464844 28.839844 33.183594 28.917969 33.257812 C 29.160156 33.480469 29.539062 33.464844 29.761719 33.222656 C 29.984375 32.980469 29.96875 32.601562 29.726562 32.378906 C 29.621094 32.28125 27.089844 30.003906 23.203125 32.039062 C 22.015625 32.664062 21.289062 33.464844 21.019531 34.425781 C 20.679688 34.578125 19.898438 34.957031 19.421875 35.382812 C 18.652344 36.082031 16.949219 38.0625 17.757812 41.316406 C 18.558594 44.550781 22.28125 44.707031 23.503906 44.761719 C 23.796875 44.785156 24.113281 44.539062 24.125 44.1875 C 24.140625 43.859375 23.886719 43.582031 23.554688 43.566406 Z M 23.554688 43.566406 " fill-opacity="1" fill-rule="nonzero"/><g clip-path="url(#5c806a43cf)"><path fill="#ffffff" d="M 39.554688 41.707031 C 39.230469 41.769531 39.015625 42.082031 39.078125 42.40625 C 39.164062 42.863281 39.273438 44.289062 38.648438 44.859375 C 37.738281 45.671875 36.839844 46 36.832031 46.003906 C 36.628906 46.074219 36.476562 46.253906 36.441406 46.472656 C 36.433594 46.515625 36.269531 47.585938 36.617188 48.496094 C 36.664062 48.652344 36.835938 49.457031 36.898438 49.613281 C 36.953125 49.742188 36.847656 49.875 36.710938 49.875 C 35.296875 49.835938 35.609375 50.070312 35.1875 49.347656 C 34.59375 48.332031 33.605469 46.632812 32.523438 46.019531 C 32.363281 45.933594 32.15625 45.824219 31.925781 45.703125 C 32.511719 45.339844 33.074219 44.761719 33.539062 43.824219 C 34.730469 41.414062 35.257812 40.660156 36.230469 40.625 C 37.324219 40.578125 37.882812 41.296875 37.90625 41.320312 C 38.109375 41.578125 38.484375 41.625 38.742188 41.417969 C 39 41.214844 39.046875 40.839844 38.839844 40.582031 C 38.800781 40.53125 37.859375 39.386719 36.1875 39.429688 C 34.433594 39.496094 33.632812 40.941406 32.46875 43.292969 C 31.496094 45.261719 30.183594 45.148438 28.800781 45.027344 C 27.613281 44.925781 25.328125 43.464844 25.195312 41.039062 C 25.109375 39.488281 26.195312 38.566406 28.582031 38.144531 C 28.800781 38.265625 29.011719 38.410156 29.050781 38.464844 C 29.082031 38.535156 29.066406 38.75 29.023438 38.902344 C 28.914062 39.285156 29.207031 39.664062 29.597656 39.664062 C 29.859375 39.664062 30.097656 39.496094 30.171875 39.234375 C 30.207031 39.113281 30.367188 38.5 30.144531 37.988281 C 30.09375 37.871094 30.011719 37.761719 29.917969 37.660156 C 30.679688 37.132812 30.824219 36.363281 30.832031 36.320312 C 30.882812 35.996094 30.664062 35.6875 30.339844 35.636719 C 30.015625 35.578125 29.707031 35.804688 29.652344 36.128906 C 29.652344 36.132812 29.523438 36.777344 28.582031 36.929688 C 25.421875 37.4375 23.878906 38.839844 24.003906 41.105469 C 24.175781 44.253906 27.105469 46.078125 28.699219 46.214844 C 29.308594 46.269531 29.730469 46.300781 30.296875 46.242188 C 31.011719 46.566406 31.585938 46.867188 31.941406 47.0625 C 32.890625 47.597656 34.0625 49.824219 34.433594 50.421875 C 34.691406 50.828125 35.132812 51.070312 35.617188 51.070312 L 36.710938 51.070312 C 37.699219 51.070312 38.371094 50.0625 38.015625 49.191406 C 37.972656 49.050781 37.796875 48.242188 37.742188 48.097656 C 37.59375 47.714844 37.582031 47.265625 37.59375 46.976562 C 38.007812 46.78125 38.722656 46.394531 39.445312 45.742188 C 40.675781 44.628906 40.296875 42.429688 40.25 42.183594 C 40.191406 41.859375 39.875 41.640625 39.554688 41.707031 Z M 39.554688 41.707031 " fill-opacity="1" fill-rule="nonzero"/></g><path fill="#ffffff" d="M 33.097656 34.335938 C 32.773438 34.269531 32.464844 34.484375 32.402344 34.808594 C 32.273438 35.460938 32.378906 36.847656 33.664062 37.4375 C 34.03125 37.605469 34.382812 37.667969 34.707031 37.667969 C 35.738281 37.667969 36.484375 37.015625 36.523438 36.976562 C 36.769531 36.757812 36.789062 36.382812 36.566406 36.136719 C 36.347656 35.890625 35.972656 35.871094 35.726562 36.089844 C 35.71875 36.097656 34.996094 36.734375 34.160156 36.351562 C 33.421875 36.015625 33.554688 35.136719 33.574219 35.03125 C 33.632812 34.710938 33.421875 34.398438 33.097656 34.335938 Z M 33.097656 34.335938 " fill-opacity="1" fill-rule="nonzero"/></svg>