<svg xmlns="http://www.w3.org/2000/svg" xmlns:xlink="http://www.w3.org/1999/xlink" width="309" zoomAndPan="magnify" viewBox="0 0 231.75 52.499999" height="70" preserveAspectRatio="xMidYMid meet" version="1.0"><defs><g/><clipPath id="4d881ab5e1"><path d="M 3.617188 9.234375 L 37.59375 9.234375 L 37.59375 43.210938 L 3.617188 43.210938 Z M 3.617188 9.234375 " clip-rule="nonzero"/></clipPath><clipPath id="61c6003e8a"><path d="M 20.605469 9.234375 C 11.222656 9.234375 3.617188 16.839844 3.617188 26.222656 C 3.617188 35.605469 11.222656 43.210938 20.605469 43.210938 C 29.988281 43.210938 37.59375 35.605469 37.59375 26.222656 C 37.59375 16.839844 29.988281 9.234375 20.605469 9.234375 Z M 20.605469 9.234375 " clip-rule="nonzero"/></clipPath><clipPath id="1d7a1e0618"><path d="M 0.617188 0.234375 L 34.59375 0.234375 L 34.59375 34.210938 L 0.617188 34.210938 Z M 0.617188 0.234375 " clip-rule="nonzero"/></clipPath><clipPath id="7496505541"><path d="M 17.605469 0.234375 C 8.222656 0.234375 0.617188 7.839844 0.617188 17.222656 C 0.617188 26.605469 8.222656 34.210938 17.605469 34.210938 C 26.988281 34.210938 34.59375 26.605469 34.59375 17.222656 C 34.59375 7.839844 26.988281 0.234375 17.605469 0.234375 Z M 17.605469 0.234375 " clip-rule="nonzero"/></clipPath><clipPath id="2e028f98c6"><rect x="0" width="35" y="0" height="35"/></clipPath><clipPath id="a7e8bfb121"><path d="M 10.730469 18.460938 L 13.617188 18.460938 L 13.617188 33.960938 L 10.730469 33.960938 Z M 10.730469 18.460938 " clip-rule="nonzero"/></clipPath><clipPath id="6d0a35ebd4"><path d="M 10.730469 32.519531 L 10.730469 19.910156 C 10.730469 19.527344 10.882812 19.160156 11.152344 18.890625 C 11.425781 18.617188 11.792969 18.46875 12.175781 18.46875 C 12.558594 18.46875 12.925781 18.617188 13.195312 18.890625 C 13.464844 19.160156 13.617188 19.527344 13.617188 19.910156 L 13.617188 32.519531 C 13.617188 32.902344 13.464844 33.265625 13.195312 33.539062 C 12.925781 33.808594 12.558594 33.960938 12.175781 33.960938 C 11.792969 33.960938 11.425781 33.808594 11.152344 33.539062 C 10.882812 33.265625 10.730469 32.902344 10.730469 32.519531 Z M 10.730469 32.519531 " clip-rule="nonzero"/></clipPath><clipPath id="0b49012151"><path d="M 0.730469 0.460938 L 3.617188 0.460938 L 3.617188 15.960938 L 0.730469 15.960938 Z M 0.730469 0.460938 " clip-rule="nonzero"/></clipPath><clipPath id="cc0798f40f"><path d="M 0.730469 14.519531 L 0.730469 1.910156 C 0.730469 1.527344 0.882812 1.160156 1.152344 0.890625 C 1.425781 0.617188 1.792969 0.46875 2.175781 0.46875 C 2.558594 0.46875 2.925781 0.617188 3.195312 0.890625 C 3.464844 1.160156 3.617188 1.527344 3.617188 1.910156 L 3.617188 14.519531 C 3.617188 14.902344 3.464844 15.265625 3.195312 15.539062 C 2.925781 15.808594 2.558594 15.960938 2.175781 15.960938 C 1.792969 15.960938 1.425781 15.808594 1.152344 15.539062 C 0.882812 15.265625 0.730469 14.902344 0.730469 14.519531 Z M 0.730469 14.519531 " clip-rule="nonzero"/></clipPath><clipPath id="c482364d1e"><rect x="0" width="4" y="0" height="16"/></clipPath><clipPath id="7e405be276"><path d="M 14.976562 22.597656 L 17.863281 22.597656 L 17.863281 33.960938 L 14.976562 33.960938 Z M 14.976562 22.597656 " clip-rule="nonzero"/></clipPath><clipPath id="754f9fa520"><path d="M 14.976562 32.515625 L 14.976562 24.042969 C 14.976562 23.660156 15.128906 23.292969 15.398438 23.019531 C 15.671875 22.75 16.039062 22.597656 16.421875 22.597656 C 16.804688 22.597656 17.167969 22.75 17.441406 23.019531 C 17.710938 23.292969 17.863281 23.660156 17.863281 24.042969 L 17.863281 32.515625 C 17.863281 32.898438 17.710938 33.265625 17.441406 33.539062 C 17.167969 33.808594 16.804688 33.960938 16.421875 33.960938 C 16.039062 33.960938 15.671875 33.808594 15.398438 33.539062 C 15.128906 33.265625 14.976562 32.898438 14.976562 32.515625 Z M 14.976562 32.515625 " clip-rule="nonzero"/></clipPath><clipPath id="05d927181a"><path d="M 0.976562 0.597656 L 3.863281 0.597656 L 3.863281 11.960938 L 0.976562 11.960938 Z M 0.976562 0.597656 " clip-rule="nonzero"/></clipPath><clipPath id="ca749935a3"><path d="M 0.976562 10.515625 L 0.976562 2.042969 C 0.976562 1.660156 1.128906 1.292969 1.398438 1.019531 C 1.671875 0.75 2.039062 0.597656 2.421875 0.597656 C 2.804688 0.597656 3.167969 0.75 3.441406 1.019531 C 3.710938 1.292969 3.863281 1.660156 3.863281 2.042969 L 3.863281 10.515625 C 3.863281 10.898438 3.710938 11.265625 3.441406 11.539062 C 3.167969 11.808594 2.804688 11.960938 2.421875 11.960938 C 2.039062 11.960938 1.671875 11.808594 1.398438 11.539062 C 1.128906 11.265625 0.976562 10.898438 0.976562 10.515625 Z M 0.976562 10.515625 " clip-rule="nonzero"/></clipPath><clipPath id="bfbfe6a82b"><rect x="0" width="4" y="0" height="12"/></clipPath><clipPath id="94cfe336c7"><path d="M 19.160156 18.460938 L 22.046875 18.460938 L 22.046875 33.960938 L 19.160156 33.960938 Z M 19.160156 18.460938 " clip-rule="nonzero"/></clipPath><clipPath id="fc1bdff2b0"><path d="M 19.160156 32.519531 L 19.160156 19.910156 C 19.160156 19.527344 19.3125 19.160156 19.585938 18.890625 C 19.855469 18.617188 20.222656 18.46875 20.605469 18.46875 C 20.988281 18.46875 21.355469 18.617188 21.625 18.890625 C 21.894531 19.160156 22.046875 19.527344 22.046875 19.910156 L 22.046875 32.519531 C 22.046875 32.902344 21.894531 33.265625 21.625 33.539062 C 21.355469 33.808594 20.988281 33.960938 20.605469 33.960938 C 20.222656 33.960938 19.855469 33.808594 19.585938 33.539062 C 19.3125 33.265625 19.160156 32.902344 19.160156 32.519531 Z M 19.160156 32.519531 " clip-rule="nonzero"/></clipPath><clipPath id="8454507b97"><path d="M 0.160156 0.460938 L 3.046875 0.460938 L 3.046875 15.960938 L 0.160156 15.960938 Z M 0.160156 0.460938 " clip-rule="nonzero"/></clipPath><clipPath id="2c1840bc31"><path d="M 0.160156 14.519531 L 0.160156 1.910156 C 0.160156 1.527344 0.3125 1.160156 0.585938 0.890625 C 0.855469 0.617188 1.222656 0.46875 1.605469 0.46875 C 1.988281 0.46875 2.355469 0.617188 2.625 0.890625 C 2.894531 1.160156 3.046875 1.527344 3.046875 1.910156 L 3.046875 14.519531 C 3.046875 14.902344 2.894531 15.265625 2.625 15.539062 C 2.355469 15.808594 1.988281 15.960938 1.605469 15.960938 C 1.222656 15.960938 0.855469 15.808594 0.585938 15.539062 C 0.3125 15.265625 0.160156 14.902344 0.160156 14.519531 Z M 0.160156 14.519531 " clip-rule="nonzero"/></clipPath><clipPath id="d0a0c47496"><rect x="0" width="4" y="0" height="16"/></clipPath><clipPath id="3a7f0ff330"><path d="M 23.195312 22.597656 L 26.082031 22.597656 L 26.082031 33.960938 L 23.195312 33.960938 Z M 23.195312 22.597656 " clip-rule="nonzero"/></clipPath><clipPath id="a21afee77c"><path d="M 23.195312 32.515625 L 23.195312 24.042969 C 23.195312 23.660156 23.347656 23.292969 23.617188 23.019531 C 23.886719 22.75 24.253906 22.597656 24.636719 22.597656 C 25.019531 22.597656 25.386719 22.75 25.65625 23.019531 C 25.929688 23.292969 26.082031 23.660156 26.082031 24.042969 L 26.082031 32.515625 C 26.082031 32.898438 25.929688 33.265625 25.65625 33.539062 C 25.386719 33.808594 25.019531 33.960938 24.636719 33.960938 C 24.253906 33.960938 23.886719 33.808594 23.617188 33.539062 C 23.347656 33.265625 23.195312 32.898438 23.195312 32.515625 Z M 23.195312 32.515625 " clip-rule="nonzero"/></clipPath><clipPath id="e72b7ea17e"><path d="M 0.195312 0.597656 L 3.082031 0.597656 L 3.082031 11.960938 L 0.195312 11.960938 Z M 0.195312 0.597656 " clip-rule="nonzero"/></clipPath><clipPath id="8c357d900f"><path d="M 0.195312 10.515625 L 0.195312 2.042969 C 0.195312 1.660156 0.347656 1.292969 0.617188 1.019531 C 0.886719 0.75 1.253906 0.597656 1.636719 0.597656 C 2.019531 0.597656 2.386719 0.75 2.65625 1.019531 C 2.929688 1.292969 3.082031 1.660156 3.082031 2.042969 L 3.082031 10.515625 C 3.082031 10.898438 2.929688 11.265625 2.65625 11.539062 C 2.386719 11.808594 2.019531 11.960938 1.636719 11.960938 C 1.253906 11.960938 0.886719 11.808594 0.617188 11.539062 C 0.347656 11.265625 0.195312 10.898438 0.195312 10.515625 Z M 0.195312 10.515625 " clip-rule="nonzero"/></clipPath><clipPath id="eddf635077"><rect x="0" width="4" y="0" height="12"/></clipPath><clipPath id="8f04e7a93b"><path d="M 27.230469 18.460938 L 30.113281 18.460938 L 30.113281 33.960938 L 27.230469 33.960938 Z M 27.230469 18.460938 " clip-rule="nonzero"/></clipPath><clipPath id="81c6eb166b"><path d="M 27.230469 32.519531 L 27.230469 19.910156 C 27.230469 19.527344 27.382812 19.160156 27.652344 18.890625 C 27.921875 18.617188 28.289062 18.46875 28.671875 18.46875 C 29.054688 18.46875 29.421875 18.617188 29.691406 18.890625 C 29.960938 19.160156 30.113281 19.527344 30.113281 19.910156 L 30.113281 32.519531 C 30.113281 32.902344 29.960938 33.265625 29.691406 33.539062 C 29.421875 33.808594 29.054688 33.960938 28.671875 33.960938 C 28.289062 33.960938 27.921875 33.808594 27.652344 33.539062 C 27.382812 33.265625 27.230469 32.902344 27.230469 32.519531 Z M 27.230469 32.519531 " clip-rule="nonzero"/></clipPath><clipPath id="426513c203"><path d="M 0.230469 0.460938 L 3.113281 0.460938 L 3.113281 15.960938 L 0.230469 15.960938 Z M 0.230469 0.460938 " clip-rule="nonzero"/></clipPath><clipPath id="6847dc9201"><path d="M 0.230469 14.519531 L 0.230469 1.910156 C 0.230469 1.527344 0.382812 1.160156 0.652344 0.890625 C 0.921875 0.617188 1.289062 0.46875 1.671875 0.46875 C 2.054688 0.46875 2.421875 0.617188 2.691406 0.890625 C 2.960938 1.160156 3.113281 1.527344 3.113281 1.910156 L 3.113281 14.519531 C 3.113281 14.902344 2.960938 15.265625 2.691406 15.539062 C 2.421875 15.808594 2.054688 15.960938 1.671875 15.960938 C 1.289062 15.960938 0.921875 15.808594 0.652344 15.539062 C 0.382812 15.265625 0.230469 14.902344 0.230469 14.519531 Z M 0.230469 14.519531 " clip-rule="nonzero"/></clipPath><clipPath id="ec414e71e6"><rect x="0" width="4" y="0" height="16"/></clipPath></defs><g clip-path="url(#4d881ab5e1)"><g clip-path="url(#61c6003e8a)"><g transform="matrix(1, 0, 0, 1, 3, 9)"><g clip-path="url(#2e028f98c6)"><g clip-path="url(#1d7a1e0618)"><g clip-path="url(#7496505541)"><path fill="#00a6fb" d="M 0.617188 0.234375 L 34.59375 0.234375 L 34.59375 34.210938 L 0.617188 34.210938 Z M 0.617188 0.234375 " fill-opacity="1" fill-rule="nonzero"/></g></g></g></g></g></g><g clip-path="url(#a7e8bfb121)"><g clip-path="url(#6d0a35ebd4)"><g transform="matrix(1, 0, 0, 1, 10, 18)"><g clip-path="url(#c482364d1e)"><g clip-path="url(#0b49012151)"><g clip-path="url(#cc0798f40f)"><path fill="#ffffff" d="M 0.730469 15.960938 L 0.730469 0.472656 L 3.617188 0.472656 L 3.617188 15.960938 Z M 0.730469 15.960938 " fill-opacity="1" fill-rule="nonzero"/></g></g></g></g></g></g><g clip-path="url(#7e405be276)"><g clip-path="url(#754f9fa520)"><g transform="matrix(1, 0, 0, 1, 14, 22)"><g clip-path="url(#bfbfe6a82b)"><g clip-path="url(#05d927181a)"><g clip-path="url(#ca749935a3)"><path fill="#ffffff" d="M 0.976562 11.960938 L 0.976562 0.597656 L 3.863281 0.597656 L 3.863281 11.960938 Z M 0.976562 11.960938 " fill-opacity="1" fill-rule="nonzero"/></g></g></g></g></g></g><g clip-path="url(#94cfe336c7)"><g clip-path="url(#fc1bdff2b0)"><g transform="matrix(1, 0, 0, 1, 19, 18)"><g clip-path="url(#d0a0c47496)"><g clip-path="url(#8454507b97)"><g clip-path="url(#2c1840bc31)"><path fill="#ffffff" d="M 0.160156 15.960938 L 0.160156 0.472656 L 3.046875 0.472656 L 3.046875 15.960938 Z M 0.160156 15.960938 " fill-opacity="1" fill-rule="nonzero"/></g></g></g></g></g></g><g clip-path="url(#3a7f0ff330)"><g clip-path="url(#a21afee77c)"><g transform="matrix(1, 0, 0, 1, 23, 22)"><g clip-path="url(#eddf635077)"><g clip-path="url(#e72b7ea17e)"><g clip-path="url(#8c357d900f)"><path fill="#ffffff" d="M 0.195312 11.960938 L 0.195312 0.597656 L 3.082031 0.597656 L 3.082031 11.960938 Z M 0.195312 11.960938 " fill-opacity="1" fill-rule="nonzero"/></g></g></g></g></g></g><g clip-path="url(#8f04e7a93b)"><g clip-path="url(#81c6eb166b)"><g transform="matrix(1, 0, 0, 1, 27, 18)"><g clip-path="url(#ec414e71e6)"><g clip-path="url(#426513c203)"><g clip-path="url(#6847dc9201)"><path fill="#ffffff" d="M 0.230469 15.960938 L 0.230469 0.472656 L 3.113281 0.472656 L 3.113281 15.960938 Z M 0.230469 15.960938 " fill-opacity="1" fill-rule="nonzero"/></g></g></g></g></g></g><g fill="#00a6fb" fill-opacity="1"><g transform="translate(45.882482, 34.23075)"><g><path d="M 11.40625 -19.640625 L 19.328125 0 L 14.53125 0 L 13.078125 -3.921875 L 5.59375 -3.921875 L 4.140625 0 L -0.671875 0 L 7.265625 -19.640625 Z M 11.546875 -7.859375 L 9.359375 -13.578125 L 9.3125 -13.578125 L 7.125 -7.859375 Z M 11.546875 -7.859375 "/></g></g></g><g fill="#00a6fb" fill-opacity="1"><g transform="translate(64.548233, 34.23075)"><g><path d="M 5.90625 -19.640625 L 5.90625 -3.921875 L 12.671875 -3.921875 L 12.671875 0 L 1.421875 0 L 1.421875 -19.640625 Z M 5.90625 -19.640625 "/></g></g></g><g fill="#00a6fb" fill-opacity="1"><g transform="translate(77.999954, 34.23075)"><g><path d="M 5.90625 -19.640625 L 5.90625 -3.921875 L 12.671875 -3.921875 L 12.671875 0 L 1.421875 0 L 1.421875 -19.640625 Z M 5.90625 -19.640625 "/></g></g></g><g fill="#00a6fb" fill-opacity="1"><g transform="translate(91.451675, 34.23075)"><g><path d="M 0.1875 -15.71875 L 0.1875 -19.640625 L 14 -19.640625 L 14 -15.71875 L 9.328125 -15.71875 L 9.328125 0 L 4.859375 0 L 4.859375 -15.71875 Z M 0.1875 -15.71875 "/></g></g></g><g fill="#00a6fb" fill-opacity="1"><g transform="translate(105.641447, 34.23075)"><g><path d="M 5.90625 -19.640625 L 5.90625 0 L 1.421875 0 L 1.421875 -19.640625 Z M 5.90625 -19.640625 "/></g></g></g><g fill="#00a6fb" fill-opacity="1"><g transform="translate(112.977849, 34.23075)"><g/></g></g><g fill="#00a6fb" fill-opacity="1"><g transform="translate(113.884489, 33.030248)"><g><path d="M 9.34375 -14.21875 C 7.988281 -14.21875 6.941406 -13.707031 6.203125 -12.6875 C 5.460938 -11.675781 5.09375 -10.257812 5.09375 -8.4375 C 5.09375 -4.65625 6.507812 -2.765625 9.34375 -2.765625 C 10.539062 -2.765625 11.984375 -3.0625 13.671875 -3.65625 L 13.671875 -0.640625 C 12.285156 -0.0546875 10.734375 0.234375 9.015625 0.234375 C 6.546875 0.234375 4.65625 -0.515625 3.34375 -2.015625 C 2.03125 -3.515625 1.375 -5.664062 1.375 -8.46875 C 1.375 -10.226562 1.695312 -11.769531 2.34375 -13.09375 C 2.988281 -14.425781 3.910156 -15.445312 5.109375 -16.15625 C 6.316406 -16.863281 7.726562 -17.21875 9.34375 -17.21875 C 11 -17.21875 12.65625 -16.820312 14.3125 -16.03125 L 13.15625 -13.09375 C 12.519531 -13.394531 11.878906 -13.65625 11.234375 -13.875 C 10.597656 -14.101562 9.96875 -14.21875 9.34375 -14.21875 Z M 9.34375 -14.21875 "/></g></g><g transform="translate(129.033184, 33.030248)"><g><path d="M 17.546875 -8.515625 C 17.546875 -5.703125 16.847656 -3.539062 15.453125 -2.03125 C 14.054688 -0.519531 12.0625 0.234375 9.46875 0.234375 C 6.863281 0.234375 4.863281 -0.519531 3.46875 -2.03125 C 2.070312 -3.539062 1.375 -5.707031 1.375 -8.53125 C 1.375 -11.351562 2.070312 -13.507812 3.46875 -15 C 4.875 -16.5 6.878906 -17.25 9.484375 -17.25 C 12.097656 -17.25 14.09375 -16.492188 15.46875 -14.984375 C 16.851562 -13.484375 17.546875 -11.328125 17.546875 -8.515625 Z M 5.15625 -8.515625 C 5.15625 -6.617188 5.515625 -5.1875 6.234375 -4.21875 C 6.953125 -3.257812 8.03125 -2.78125 9.46875 -2.78125 C 12.332031 -2.78125 13.765625 -4.691406 13.765625 -8.515625 C 13.765625 -12.335938 12.335938 -14.25 9.484375 -14.25 C 8.054688 -14.25 6.976562 -13.765625 6.25 -12.796875 C 5.519531 -11.835938 5.15625 -10.410156 5.15625 -8.515625 Z M 5.15625 -8.515625 "/></g></g><g transform="translate(147.954542, 33.030248)"><g><path d="M 17.203125 0 L 12.625 0 L 5.234375 -12.84375 L 5.125 -12.84375 C 5.28125 -10.570312 5.359375 -8.953125 5.359375 -7.984375 L 5.359375 0 L 2.140625 0 L 2.140625 -16.984375 L 6.671875 -16.984375 L 14.046875 -4.265625 L 14.125 -4.265625 C 14.007812 -6.472656 13.953125 -8.03125 13.953125 -8.9375 L 13.953125 -16.984375 L 17.203125 -16.984375 Z M 17.203125 0 "/></g></g><g transform="translate(167.282186, 33.030248)"><g><path d="M 8.6875 0 L 5.09375 0 L 5.09375 -13.984375 L 0.46875 -13.984375 L 0.46875 -16.984375 L 13.296875 -16.984375 L 13.296875 -13.984375 L 8.6875 -13.984375 Z M 8.6875 0 "/></g></g><g transform="translate(181.049505, 33.030248)"><g><path d="M 5.734375 -9.4375 L 6.890625 -9.4375 C 8.035156 -9.4375 8.878906 -9.625 9.421875 -10 C 9.960938 -10.382812 10.234375 -10.984375 10.234375 -11.796875 C 10.234375 -12.597656 9.953125 -13.171875 9.390625 -13.515625 C 8.835938 -13.859375 7.984375 -14.03125 6.828125 -14.03125 L 5.734375 -14.03125 Z M 5.734375 -6.515625 L 5.734375 0 L 2.140625 0 L 2.140625 -16.984375 L 7.078125 -16.984375 C 9.390625 -16.984375 11.097656 -16.5625 12.203125 -15.71875 C 13.304688 -14.875 13.859375 -13.597656 13.859375 -11.890625 C 13.859375 -10.890625 13.582031 -10 13.03125 -9.21875 C 12.488281 -8.445312 11.710938 -7.835938 10.703125 -7.390625 C 13.253906 -3.578125 14.921875 -1.113281 15.703125 0 L 11.703125 0 L 7.65625 -6.515625 Z M 5.734375 -6.515625 "/></g></g><g transform="translate(196.743785, 33.030248)"><g><path d="M 17.546875 -8.515625 C 17.546875 -5.703125 16.847656 -3.539062 15.453125 -2.03125 C 14.054688 -0.519531 12.0625 0.234375 9.46875 0.234375 C 6.863281 0.234375 4.863281 -0.519531 3.46875 -2.03125 C 2.070312 -3.539062 1.375 -5.707031 1.375 -8.53125 C 1.375 -11.351562 2.070312 -13.507812 3.46875 -15 C 4.875 -16.5 6.878906 -17.25 9.484375 -17.25 C 12.097656 -17.25 14.09375 -16.492188 15.46875 -14.984375 C 16.851562 -13.484375 17.546875 -11.328125 17.546875 -8.515625 Z M 5.15625 -8.515625 C 5.15625 -6.617188 5.515625 -5.1875 6.234375 -4.21875 C 6.953125 -3.257812 8.03125 -2.78125 9.46875 -2.78125 C 12.332031 -2.78125 13.765625 -4.691406 13.765625 -8.515625 C 13.765625 -12.335938 12.335938 -14.25 9.484375 -14.25 C 8.054688 -14.25 6.976562 -13.765625 6.25 -12.796875 C 5.519531 -11.835938 5.15625 -10.410156 5.15625 -8.515625 Z M 5.15625 -8.515625 "/></g></g><g transform="translate(215.665143, 33.030248)"><g><path d="M 2.140625 0 L 2.140625 -16.984375 L 5.734375 -16.984375 L 5.734375 -2.96875 L 12.625 -2.96875 L 12.625 0 Z M 2.140625 0 "/></g></g></g></svg>