<svg xmlns="http://www.w3.org/2000/svg" xmlns:xlink="http://www.w3.org/1999/xlink" width="309" zoomAndPan="magnify" viewBox="0 0 231.75 52.499999" height="70" preserveAspectRatio="xMidYMid meet" version="1.0"><defs><g/><clipPath id="23310713d8"><path d="M 3 0.9375 L 55.679688 0.9375 L 55.679688 32 L 3 32 Z M 3 0.9375 " clip-rule="nonzero"/></clipPath><clipPath id="b0f051ca82"><path d="M 23 35 L 41 35 L 41 50.714844 L 23 50.714844 Z M 23 35 " clip-rule="nonzero"/></clipPath></defs><g fill="#3390ef" fill-opacity="1"><g transform="translate(66.957078, 35.959671)"><g><path d="M 0.28125 -22.890625 L 0.28125 -28.609375 L 20.390625 -28.609375 L 20.390625 -22.890625 L 13.59375 -22.890625 L 13.59375 0 L 7.078125 0 L 7.078125 -22.890625 Z M 0.28125 -22.890625 "/></g></g></g><g fill="#3390ef" fill-opacity="1"><g transform="translate(87.615619, 35.959671)"><g><path d="M 18.453125 -28.609375 L 18.453125 -22.890625 L 8.59375 -22.890625 L 8.59375 -17.203125 L 18.03125 -17.203125 L 18.03125 -11.46875 L 8.59375 -11.46875 L 8.59375 -5.71875 L 18.453125 -5.71875 L 18.453125 0 L 2.078125 0 L 2.078125 -28.609375 Z M 18.453125 -28.609375 "/></g></g></g><g fill="#3390ef" fill-opacity="1"><g transform="translate(107.719573, 35.959671)"><g><path d="M 17.296875 -5.890625 C 18.296875 -5.890625 19.257812 -6.039062 20.1875 -6.34375 C 21.125 -6.644531 21.816406 -6.9375 22.265625 -7.21875 L 22.921875 -7.65625 L 25.6875 -2.109375 C 25.59375 -2.046875 25.460938 -1.957031 25.296875 -1.84375 C 25.140625 -1.726562 24.765625 -1.515625 24.171875 -1.203125 C 23.585938 -0.890625 22.957031 -0.613281 22.28125 -0.375 C 21.613281 -0.144531 20.738281 0.0546875 19.65625 0.234375 C 18.570312 0.421875 17.453125 0.515625 16.296875 0.515625 C 13.640625 0.515625 11.117188 -0.132812 8.734375 -1.4375 C 6.359375 -2.738281 4.441406 -4.535156 2.984375 -6.828125 C 1.523438 -9.117188 0.796875 -11.59375 0.796875 -14.25 C 0.796875 -16.257812 1.222656 -18.1875 2.078125 -20.03125 C 2.929688 -21.882812 4.066406 -23.46875 5.484375 -24.78125 C 6.910156 -26.101562 8.570312 -27.15625 10.46875 -27.9375 C 12.363281 -28.726562 14.304688 -29.125 16.296875 -29.125 C 18.140625 -29.125 19.84375 -28.90625 21.40625 -28.46875 C 22.96875 -28.03125 24.070312 -27.585938 24.71875 -27.140625 L 25.6875 -26.484375 L 22.921875 -20.9375 C 22.753906 -21.082031 22.507812 -21.25 22.1875 -21.4375 C 21.863281 -21.632812 21.21875 -21.894531 20.25 -22.21875 C 19.28125 -22.539062 18.296875 -22.703125 17.296875 -22.703125 C 15.722656 -22.703125 14.3125 -22.445312 13.0625 -21.9375 C 11.820312 -21.4375 10.835938 -20.769531 10.109375 -19.9375 C 9.378906 -19.101562 8.820312 -18.207031 8.4375 -17.25 C 8.0625 -16.289062 7.875 -15.3125 7.875 -14.3125 C 7.875 -12.144531 8.6875 -10.195312 10.3125 -8.46875 C 11.945312 -6.75 14.273438 -5.890625 17.296875 -5.890625 Z M 17.296875 -5.890625 "/></g></g></g><g fill="#3390ef" fill-opacity="1"><g transform="translate(133.820044, 35.959671)"><g><path d="M 8.59375 -11.46875 L 8.59375 0 L 2.078125 0 L 2.078125 -28.609375 L 8.59375 -28.609375 L 8.59375 -17.203125 L 17.828125 -17.203125 L 17.828125 -28.609375 L 24.34375 -28.609375 L 24.34375 0 L 17.828125 0 L 17.828125 -11.46875 Z M 8.59375 -11.46875 "/></g></g></g><g fill="#3390ef" fill-opacity="1"><g transform="translate(160.232473, 35.959671)"><g><path d="M 0.796875 -14.3125 C 0.796875 -18.457031 2.203125 -21.960938 5.015625 -24.828125 C 7.835938 -27.691406 11.238281 -29.125 15.21875 -29.125 C 19.21875 -29.125 22.613281 -27.695312 25.40625 -24.84375 C 28.207031 -21.988281 29.609375 -18.476562 29.609375 -14.3125 C 29.609375 -10.132812 28.234375 -6.617188 25.484375 -3.765625 C 22.734375 -0.910156 19.3125 0.515625 15.21875 0.515625 C 11.039062 0.515625 7.59375 -0.894531 4.875 -3.71875 C 2.15625 -6.550781 0.796875 -10.082031 0.796875 -14.3125 Z M 7.828125 -14.3125 C 7.828125 -12.8125 8.054688 -11.441406 8.515625 -10.203125 C 8.984375 -8.972656 9.796875 -7.929688 10.953125 -7.078125 C 12.109375 -6.222656 13.53125 -5.796875 15.21875 -5.796875 C 17.644531 -5.796875 19.476562 -6.625 20.71875 -8.28125 C 21.957031 -9.945312 22.578125 -11.957031 22.578125 -14.3125 C 22.578125 -16.65625 21.945312 -18.660156 20.6875 -20.328125 C 19.425781 -22.003906 17.601562 -22.84375 15.21875 -22.84375 C 12.863281 -22.84375 11.039062 -22.003906 9.75 -20.328125 C 8.46875 -18.660156 7.828125 -16.65625 7.828125 -14.3125 Z M 7.828125 -14.3125 "/></g></g></g><g fill="#3390ef" fill-opacity="1"><g transform="translate(190.631037, 35.959671)"><g><path d="M 12.625 -29.125 C 14.164062 -29.125 15.675781 -28.894531 17.15625 -28.4375 C 18.632812 -27.988281 19.734375 -27.546875 20.453125 -27.109375 L 21.5 -26.421875 L 18.859375 -21.21875 C 18.648438 -21.351562 18.359375 -21.53125 17.984375 -21.75 C 17.617188 -21.96875 16.925781 -22.265625 15.90625 -22.640625 C 14.894531 -23.015625 13.953125 -23.203125 13.078125 -23.203125 C 11.984375 -23.203125 11.140625 -22.96875 10.546875 -22.5 C 9.960938 -22.039062 9.671875 -21.414062 9.671875 -20.625 C 9.671875 -20.238281 9.804688 -19.875 10.078125 -19.53125 C 10.359375 -19.195312 10.832031 -18.835938 11.5 -18.453125 C 12.175781 -18.078125 12.769531 -17.773438 13.28125 -17.546875 C 13.789062 -17.316406 14.578125 -16.96875 15.640625 -16.5 C 17.484375 -15.71875 19.054688 -14.648438 20.359375 -13.296875 C 21.671875 -11.941406 22.328125 -10.410156 22.328125 -8.703125 C 22.328125 -7.054688 22.03125 -5.617188 21.4375 -4.390625 C 20.851562 -3.171875 20.046875 -2.210938 19.015625 -1.515625 C 17.984375 -0.828125 16.84375 -0.316406 15.59375 0.015625 C 14.351562 0.347656 13.003906 0.515625 11.546875 0.515625 C 10.296875 0.515625 9.066406 0.382812 7.859375 0.125 C 6.660156 -0.125 5.65625 -0.4375 4.84375 -0.8125 C 4.039062 -1.195312 3.316406 -1.570312 2.671875 -1.9375 C 2.023438 -2.3125 1.550781 -2.625 1.25 -2.875 L 0.796875 -3.265625 L 4.0625 -8.734375 C 4.332031 -8.503906 4.707031 -8.207031 5.1875 -7.84375 C 5.675781 -7.488281 6.539062 -7.007812 7.78125 -6.40625 C 9.019531 -5.8125 10.113281 -5.515625 11.0625 -5.515625 C 13.8125 -5.515625 15.1875 -6.453125 15.1875 -8.328125 C 15.1875 -8.710938 15.085938 -9.070312 14.890625 -9.40625 C 14.691406 -9.75 14.34375 -10.085938 13.84375 -10.421875 C 13.351562 -10.753906 12.914062 -11.019531 12.53125 -11.21875 C 12.15625 -11.414062 11.53125 -11.710938 10.65625 -12.109375 C 9.789062 -12.515625 9.148438 -12.820312 8.734375 -13.03125 C 7.003906 -13.882812 5.664062 -14.953125 4.71875 -16.234375 C 3.769531 -17.523438 3.296875 -18.910156 3.296875 -20.390625 C 3.296875 -22.953125 4.242188 -25.046875 6.140625 -26.671875 C 8.035156 -28.304688 10.195312 -29.125 12.625 -29.125 Z M 12.625 -29.125 "/></g></g></g><g clip-path="url(#23310713d8)"><path fill="#3390ef" d="M 44.8125 12.175781 C 42.578125 5.816406 34.582031 3.433594 29.226562 7.792969 C 27.402344 3.652344 23.273438 0.929688 18.691406 0.929688 C 9.675781 0.929688 4.238281 10.828125 8.824219 18.398438 C 5.574219 18.914062 3.082031 21.742188 3.082031 25.132812 C 3.082031 28.890625 6.140625 31.949219 9.898438 31.949219 L 14.109375 31.949219 C 14.4375 31.949219 14.707031 31.683594 14.707031 31.351562 C 14.707031 31.023438 14.4375 30.757812 14.109375 30.757812 L 9.898438 30.757812 C 6.796875 30.757812 4.273438 28.234375 4.273438 25.132812 C 4.273438 20.328125 9.953125 17.722656 13.574219 20.902344 C 13.820312 21.117188 14.199219 21.097656 14.417969 20.847656 C 14.632812 20.601562 14.609375 20.222656 14.363281 20.003906 C 13.207031 18.988281 11.742188 18.40625 10.210938 18.328125 C 5.496094 11.550781 10.335938 2.121094 18.691406 2.121094 C 23.058594 2.121094 26.972656 4.886719 28.425781 9.003906 C 28.570312 9.417969 29.09375 9.53125 29.402344 9.234375 C 33.90625 4.859375 41.367188 6.578125 43.59375 12.316406 C 41.648438 12.652344 39.847656 13.554688 38.40625 14.949219 C 38.171875 15.179688 38.164062 15.558594 38.394531 15.792969 C 38.625 16.035156 39.003906 16.035156 39.238281 15.808594 C 40.941406 14.15625 43.136719 13.355469 45.296875 13.355469 C 50.097656 13.355469 54 17.257812 54 22.050781 C 54 26.851562 50.097656 30.757812 45.296875 30.757812 L 43.371094 30.757812 C 43.042969 30.757812 42.773438 31.023438 42.773438 31.351562 C 42.773438 31.683594 43.042969 31.949219 43.371094 31.949219 L 45.296875 31.949219 C 50.753906 31.949219 55.195312 27.507812 55.195312 22.050781 C 55.195312 16.351562 50.347656 11.902344 44.8125 12.175781 Z M 44.8125 12.175781 " fill-opacity="1" fill-rule="nonzero"/></g><path fill="#3390ef" d="M 19.273438 5.710938 C 19.269531 5.386719 19.003906 5.125 18.675781 5.125 C 18.347656 5.207031 14.597656 4.894531 13.023438 8.375 C 12.886719 8.675781 13.019531 9.027344 13.320312 9.164062 C 13.621094 9.296875 13.972656 9.167969 14.109375 8.867188 C 14.867188 7.191406 16.363281 6.359375 18.6875 6.320312 C 19.019531 6.3125 19.28125 6.042969 19.273438 5.710938 Z M 19.273438 5.710938 " fill-opacity="1" fill-rule="nonzero"/><path fill="#3390ef" d="M 38.320312 29.644531 L 38.320312 25.753906 C 38.320312 25.15625 38.566406 24.566406 38.996094 24.136719 L 39.855469 23.277344 C 40.089844 23.046875 40.089844 22.667969 39.855469 22.433594 C 39.625 22.203125 39.246094 22.203125 39.011719 22.433594 L 38.152344 23.292969 C 37.503906 23.945312 37.128906 24.84375 37.128906 25.753906 L 37.128906 29.644531 C 37.128906 29.972656 37.394531 30.242188 37.722656 30.242188 C 38.054688 30.242188 38.320312 29.972656 38.320312 29.644531 Z M 38.320312 29.644531 " fill-opacity="1" fill-rule="nonzero"/><path fill="#3390ef" d="M 31.398438 28.960938 C 31.726562 28.960938 31.996094 28.691406 31.996094 28.363281 L 31.996094 24.335938 C 31.996094 23.003906 30.90625 21.917969 29.570312 21.917969 L 29.109375 21.917969 C 28.429688 21.917969 27.875 21.363281 27.875 20.683594 L 27.875 19.753906 C 27.875 19.425781 27.605469 19.15625 27.277344 19.15625 C 26.949219 19.15625 26.679688 19.425781 26.679688 19.753906 L 26.679688 20.683594 C 26.679688 22.023438 27.769531 23.113281 29.109375 23.113281 L 29.570312 23.113281 C 30.25 23.113281 30.800781 23.660156 30.800781 24.335938 L 30.800781 28.363281 C 30.800781 28.691406 31.070312 28.960938 31.398438 28.960938 Z M 31.398438 28.960938 " fill-opacity="1" fill-rule="nonzero"/><path fill="#3390ef" d="M 22.550781 25.464844 L 22.550781 28.964844 C 22.550781 29.296875 22.816406 29.5625 23.148438 29.5625 C 23.476562 29.5625 23.742188 29.296875 23.742188 28.964844 L 23.742188 24.867188 C 23.742188 24.539062 23.476562 24.273438 23.148438 24.273438 L 17.894531 24.273438 C 17.566406 24.273438 17.300781 24.539062 17.300781 24.867188 C 17.300781 25.199219 17.566406 25.464844 17.894531 25.464844 Z M 22.550781 25.464844 " fill-opacity="1" fill-rule="nonzero"/><path fill="#3390ef" d="M 44.554688 19.621094 C 44.554688 18.414062 43.574219 17.433594 42.367188 17.433594 C 41.160156 17.433594 40.179688 18.414062 40.179688 19.621094 C 40.179688 20.828125 41.160156 21.808594 42.367188 21.808594 C 43.574219 21.808594 44.554688 20.828125 44.554688 19.621094 Z M 41.371094 19.621094 C 41.371094 19.074219 41.820312 18.628906 42.367188 18.628906 C 42.917969 18.628906 43.363281 19.074219 43.363281 19.621094 C 43.363281 20.171875 42.917969 20.617188 42.367188 20.617188 C 41.820312 20.617188 41.371094 20.171875 41.371094 19.621094 Z M 41.371094 19.621094 " fill-opacity="1" fill-rule="nonzero"/><path fill="#3390ef" d="M 27.277344 13.191406 C 26.070312 13.191406 25.089844 14.171875 25.089844 15.378906 C 25.089844 16.585938 26.070312 17.566406 27.277344 17.566406 C 28.484375 17.566406 29.464844 16.585938 29.464844 15.378906 C 29.464844 14.171875 28.484375 13.191406 27.277344 13.191406 Z M 27.277344 16.375 C 26.726562 16.375 26.28125 15.929688 26.28125 15.378906 C 26.28125 14.832031 26.726562 14.386719 27.277344 14.386719 C 27.824219 14.386719 28.269531 14.832031 28.269531 15.378906 C 28.269531 15.929688 27.824219 16.375 27.277344 16.375 Z M 27.277344 16.375 " fill-opacity="1" fill-rule="nonzero"/><path fill="#3390ef" d="M 13.515625 22.683594 C 12.308594 22.683594 11.328125 23.664062 11.328125 24.871094 C 11.328125 26.078125 12.308594 27.058594 13.515625 27.058594 C 14.722656 27.058594 15.703125 26.078125 15.703125 24.871094 C 15.703125 23.664062 14.722656 22.683594 13.515625 22.683594 Z M 13.515625 25.867188 C 12.96875 25.867188 12.523438 25.417969 12.523438 24.871094 C 12.523438 24.324219 12.96875 23.875 13.515625 23.875 C 14.066406 23.875 14.511719 24.324219 14.511719 24.871094 C 14.511719 25.417969 14.066406 25.867188 13.515625 25.867188 Z M 13.515625 25.867188 " fill-opacity="1" fill-rule="nonzero"/><path fill="#3390ef" d="M 41.574219 36.6875 C 41.570312 36.679688 41.574219 36.667969 41.574219 36.660156 C 41.5625 36.582031 41.269531 34.707031 39.210938 32.914062 C 37.109375 31.082031 34.644531 31.488281 34.539062 31.507812 C 34.484375 31.519531 34.441406 31.542969 34.394531 31.566406 C 33.15625 30.652344 31.945312 30.488281 30.429688 30.566406 C 30.097656 30.585938 29.847656 30.867188 29.863281 31.195312 C 29.882812 31.527344 30.1875 31.78125 30.492188 31.757812 C 30.769531 31.746094 31.085938 31.738281 31.441406 31.753906 C 33.6875 31.832031 34.703125 33.582031 34.742188 33.65625 C 34.902344 33.945312 35.265625 34.046875 35.554688 33.890625 C 35.84375 33.730469 35.949219 33.367188 35.789062 33.078125 C 35.773438 33.054688 35.679688 32.890625 35.503906 32.65625 C 36.238281 32.691406 37.386719 32.910156 38.429688 33.816406 C 39.339844 34.609375 39.832031 35.402344 40.097656 35.984375 C 39.898438 35.933594 39.699219 35.886719 39.484375 35.871094 C 39.164062 35.84375 38.867188 36.085938 38.839844 36.414062 C 38.8125 36.742188 39.058594 37.03125 39.386719 37.058594 C 40.171875 37.125 40.847656 37.492188 41.394531 38.148438 C 42.632812 39.640625 42.089844 41.589844 41.242188 42.804688 C 40.96875 43.203125 41.257812 43.742188 41.734375 43.742188 C 41.921875 43.742188 42.109375 43.652344 42.222656 43.484375 C 43.773438 41.253906 43.789062 38.386719 41.574219 36.6875 Z M 41.574219 36.6875 " fill-opacity="1" fill-rule="nonzero"/><path fill="#3390ef" d="M 23.554688 43.566406 C 20.789062 43.453125 19.316406 42.644531 18.914062 41.027344 C 18.285156 38.492188 19.464844 36.957031 20.21875 36.269531 C 20.398438 36.109375 20.679688 35.941406 20.949219 35.792969 C 21.125 36.851562 21.738281 37.625 21.773438 37.667969 C 21.980469 37.925781 22.355469 37.964844 22.613281 37.757812 C 22.867188 37.550781 22.910156 37.175781 22.699219 36.917969 C 22.691406 36.910156 21.917969 35.910156 22.132812 34.867188 C 22.273438 34.183594 22.820312 33.589844 23.757812 33.097656 C 26.875 31.464844 28.839844 33.183594 28.917969 33.257812 C 29.160156 33.480469 29.539062 33.464844 29.761719 33.222656 C 29.984375 32.980469 29.96875 32.601562 29.726562 32.378906 C 29.621094 32.28125 27.089844 30.003906 23.203125 32.039062 C 22.015625 32.664062 21.289062 33.464844 21.019531 34.425781 C 20.679688 34.578125 19.898438 34.957031 19.421875 35.382812 C 18.652344 36.082031 16.949219 38.0625 17.757812 41.316406 C 18.558594 44.550781 22.28125 44.707031 23.503906 44.761719 C 23.796875 44.785156 24.113281 44.539062 24.125 44.1875 C 24.140625 43.859375 23.886719 43.582031 23.554688 43.566406 Z M 23.554688 43.566406 " fill-opacity="1" fill-rule="nonzero"/><g clip-path="url(#b0f051ca82)"><path fill="#3390ef" d="M 39.554688 41.707031 C 39.230469 41.769531 39.015625 42.082031 39.078125 42.40625 C 39.164062 42.863281 39.273438 44.289062 38.648438 44.859375 C 37.738281 45.671875 36.839844 46 36.832031 46.003906 C 36.628906 46.074219 36.476562 46.253906 36.441406 46.472656 C 36.433594 46.515625 36.269531 47.585938 36.617188 48.496094 C 36.664062 48.652344 36.835938 49.457031 36.898438 49.613281 C 36.953125 49.742188 36.847656 49.875 36.710938 49.875 C 35.296875 49.835938 35.609375 50.070312 35.1875 49.347656 C 34.59375 48.332031 33.605469 46.632812 32.523438 46.019531 C 32.363281 45.933594 32.15625 45.824219 31.925781 45.703125 C 32.511719 45.339844 33.074219 44.761719 33.539062 43.824219 C 34.730469 41.414062 35.257812 40.660156 36.230469 40.625 C 37.324219 40.578125 37.882812 41.296875 37.90625 41.320312 C 38.109375 41.578125 38.484375 41.625 38.742188 41.417969 C 39 41.214844 39.046875 40.839844 38.839844 40.582031 C 38.800781 40.53125 37.859375 39.386719 36.1875 39.429688 C 34.433594 39.496094 33.632812 40.941406 32.46875 43.292969 C 31.496094 45.261719 30.183594 45.148438 28.800781 45.027344 C 27.613281 44.925781 25.328125 43.464844 25.195312 41.039062 C 25.109375 39.488281 26.195312 38.566406 28.582031 38.144531 C 28.800781 38.265625 29.011719 38.410156 29.050781 38.464844 C 29.082031 38.535156 29.066406 38.75 29.023438 38.902344 C 28.914062 39.285156 29.207031 39.664062 29.597656 39.664062 C 29.859375 39.664062 30.097656 39.496094 30.171875 39.234375 C 30.207031 39.113281 30.367188 38.5 30.144531 37.988281 C 30.09375 37.871094 30.011719 37.761719 29.917969 37.660156 C 30.679688 37.132812 30.824219 36.363281 30.832031 36.320312 C 30.882812 35.996094 30.664062 35.6875 30.339844 35.636719 C 30.015625 35.578125 29.707031 35.804688 29.652344 36.128906 C 29.652344 36.132812 29.523438 36.777344 28.582031 36.929688 C 25.421875 37.4375 23.878906 38.839844 24.003906 41.105469 C 24.175781 44.253906 27.105469 46.078125 28.699219 46.214844 C 29.308594 46.269531 29.730469 46.300781 30.296875 46.242188 C 31.011719 46.566406 31.585938 46.867188 31.941406 47.0625 C 32.890625 47.597656 34.0625 49.824219 34.433594 50.421875 C 34.691406 50.828125 35.132812 51.070312 35.617188 51.070312 L 36.710938 51.070312 C 37.699219 51.070312 38.371094 50.0625 38.015625 49.191406 C 37.972656 49.050781 37.796875 48.242188 37.742188 48.097656 C 37.59375 47.714844 37.582031 47.265625 37.59375 46.976562 C 38.007812 46.78125 38.722656 46.394531 39.445312 45.742188 C 40.675781 44.628906 40.296875 42.429688 40.25 42.183594 C 40.191406 41.859375 39.875 41.640625 39.554688 41.707031 Z M 39.554688 41.707031 " fill-opacity="1" fill-rule="nonzero"/></g><path fill="#3390ef" d="M 33.097656 34.335938 C 32.773438 34.269531 32.464844 34.484375 32.402344 34.808594 C 32.273438 35.460938 32.378906 36.847656 33.664062 37.4375 C 34.03125 37.605469 34.382812 37.667969 34.707031 37.667969 C 35.738281 37.667969 36.484375 37.015625 36.523438 36.976562 C 36.769531 36.757812 36.789062 36.382812 36.566406 36.136719 C 36.347656 35.890625 35.972656 35.871094 35.726562 36.089844 C 35.71875 36.097656 34.996094 36.734375 34.160156 36.351562 C 33.421875 36.015625 33.554688 35.136719 33.574219 35.03125 C 33.632812 34.710938 33.421875 34.398438 33.097656 34.335938 Z M 33.097656 34.335938 " fill-opacity="1" fill-rule="nonzero"/></svg>