<svg xmlns="http://www.w3.org/2000/svg" xmlns:xlink="http://www.w3.org/1999/xlink" width="309" zoomAndPan="magnify" viewBox="0 0 231.75 52.499999" height="70" preserveAspectRatio="xMidYMid meet" version="1.0"><defs><g/><clipPath id="55063e2940"><path d="M 1 0 L 55.203125 0 L 55.203125 33 L 1 33 Z M 1 0 " clip-rule="nonzero"/></clipPath><clipPath id="72111b514a"><path d="M 22 35 L 40 35 L 40 52.003906 L 22 52.003906 Z M 22 35 " clip-rule="nonzero"/></clipPath></defs><g fill="#ffffff" fill-opacity="1"><g transform="translate(55.389202, 38.875495)"><g><path d="M 0.3125 -26.15625 L 0.3125 -32.6875 L 23.296875 -32.6875 L 23.296875 -26.15625 L 15.53125 -26.15625 L 15.53125 0 L 8.078125 0 L 8.078125 -26.15625 Z M 0.3125 -26.15625 "/></g></g></g><g fill="#ffffff" fill-opacity="1"><g transform="translate(79.001948, 38.875495)"><g><path d="M 21.078125 -32.6875 L 21.078125 -26.15625 L 9.828125 -26.15625 L 9.828125 -19.65625 L 20.609375 -19.65625 L 20.609375 -13.109375 L 9.828125 -13.109375 L 9.828125 -6.53125 L 21.078125 -6.53125 L 21.078125 0 L 2.375 0 L 2.375 -32.6875 Z M 21.078125 -32.6875 "/></g></g></g><g fill="#ffffff" fill-opacity="1"><g transform="translate(101.9808, 38.875495)"><g><path d="M 19.765625 -6.734375 C 20.910156 -6.734375 22.015625 -6.90625 23.078125 -7.25 C 24.148438 -7.59375 24.9375 -7.921875 25.4375 -8.234375 L 26.1875 -8.75 L 29.359375 -2.421875 C 29.253906 -2.335938 29.109375 -2.226562 28.921875 -2.09375 C 28.742188 -1.96875 28.316406 -1.722656 27.640625 -1.359375 C 26.960938 -1.003906 26.238281 -0.695312 25.46875 -0.4375 C 24.707031 -0.175781 23.707031 0.0546875 22.46875 0.265625 C 21.226562 0.484375 19.945312 0.59375 18.625 0.59375 C 15.582031 0.59375 12.703125 -0.148438 9.984375 -1.640625 C 7.265625 -3.140625 5.070312 -5.195312 3.40625 -7.8125 C 1.738281 -10.425781 0.90625 -13.25 0.90625 -16.28125 C 0.90625 -18.582031 1.394531 -20.789062 2.375 -22.90625 C 3.351562 -25.019531 4.65625 -26.828125 6.28125 -28.328125 C 7.90625 -29.835938 9.800781 -31.039062 11.96875 -31.9375 C 14.132812 -32.832031 16.351562 -33.28125 18.625 -33.28125 C 20.738281 -33.28125 22.6875 -33.03125 24.46875 -32.53125 C 26.25 -32.03125 27.507812 -31.53125 28.25 -31.03125 L 29.359375 -30.28125 L 26.1875 -23.9375 C 26.007812 -24.09375 25.734375 -24.28125 25.359375 -24.5 C 24.992188 -24.726562 24.253906 -25.023438 23.140625 -25.390625 C 22.035156 -25.765625 20.910156 -25.953125 19.765625 -25.953125 C 17.972656 -25.953125 16.363281 -25.660156 14.9375 -25.078125 C 13.507812 -24.492188 12.378906 -23.726562 11.546875 -22.78125 C 10.710938 -21.832031 10.078125 -20.804688 9.640625 -19.703125 C 9.210938 -18.609375 9 -17.492188 9 -16.359375 C 9 -13.878906 9.925781 -11.65625 11.78125 -9.6875 C 13.644531 -7.71875 16.304688 -6.734375 19.765625 -6.734375 Z M 19.765625 -6.734375 "/></g></g></g><g fill="#ffffff" fill-opacity="1"><g transform="translate(131.81368, 38.875495)"><g><path d="M 9.828125 -13.109375 L 9.828125 0 L 2.375 0 L 2.375 -32.6875 L 9.828125 -32.6875 L 9.828125 -19.65625 L 20.375 -19.65625 L 20.375 -32.6875 L 27.8125 -32.6875 L 27.8125 0 L 20.375 0 L 20.375 -13.109375 Z M 9.828125 -13.109375 "/></g></g></g><g fill="#ffffff" fill-opacity="1"><g transform="translate(162.003138, 38.875495)"><g><path d="M 0.90625 -16.359375 C 0.90625 -21.085938 2.515625 -25.085938 5.734375 -28.359375 C 8.960938 -31.640625 12.847656 -33.28125 17.390625 -33.28125 C 21.960938 -33.28125 25.847656 -31.648438 29.046875 -28.390625 C 32.242188 -25.128906 33.84375 -21.117188 33.84375 -16.359375 C 33.84375 -11.578125 32.269531 -7.554688 29.125 -4.296875 C 25.976562 -1.035156 22.066406 0.59375 17.390625 0.59375 C 12.609375 0.59375 8.664062 -1.019531 5.5625 -4.25 C 2.457031 -7.488281 0.90625 -11.523438 0.90625 -16.359375 Z M 8.953125 -16.359375 C 8.953125 -14.648438 9.21875 -13.085938 9.75 -11.671875 C 10.28125 -10.253906 11.203125 -9.054688 12.515625 -8.078125 C 13.835938 -7.109375 15.460938 -6.625 17.390625 -6.625 C 20.171875 -6.625 22.265625 -7.570312 23.671875 -9.46875 C 25.085938 -11.375 25.796875 -13.671875 25.796875 -16.359375 C 25.796875 -19.035156 25.078125 -21.328125 23.640625 -23.234375 C 22.203125 -25.148438 20.117188 -26.109375 17.390625 -26.109375 C 14.703125 -26.109375 12.625 -25.148438 11.15625 -23.234375 C 9.6875 -21.328125 8.953125 -19.035156 8.953125 -16.359375 Z M 8.953125 -16.359375 "/></g></g></g><g fill="#ffffff" fill-opacity="1"><g transform="translate(196.748744, 38.875495)"><g><path d="M 14.421875 -33.28125 C 16.191406 -33.28125 17.921875 -33.019531 19.609375 -32.5 C 21.304688 -31.988281 22.5625 -31.484375 23.375 -30.984375 L 24.5625 -30.1875 L 21.5625 -24.25 C 21.320312 -24.40625 20.988281 -24.609375 20.5625 -24.859375 C 20.144531 -25.109375 19.351562 -25.445312 18.1875 -25.875 C 17.019531 -26.300781 15.9375 -26.515625 14.9375 -26.515625 C 13.695312 -26.515625 12.738281 -26.25 12.0625 -25.71875 C 11.394531 -25.1875 11.0625 -24.472656 11.0625 -23.578125 C 11.0625 -23.128906 11.21875 -22.710938 11.53125 -22.328125 C 11.84375 -21.941406 12.378906 -21.53125 13.140625 -21.09375 C 13.910156 -20.664062 14.585938 -20.316406 15.171875 -20.046875 C 15.753906 -19.785156 16.65625 -19.390625 17.875 -18.859375 C 19.988281 -17.960938 21.789062 -16.738281 23.28125 -15.1875 C 24.769531 -13.644531 25.515625 -11.898438 25.515625 -9.953125 C 25.515625 -8.066406 25.175781 -6.425781 24.5 -5.03125 C 23.832031 -3.632812 22.910156 -2.539062 21.734375 -1.75 C 20.554688 -0.957031 19.253906 -0.367188 17.828125 0.015625 C 16.398438 0.398438 14.851562 0.59375 13.1875 0.59375 C 11.769531 0.59375 10.375 0.445312 9 0.15625 C 7.625 -0.132812 6.472656 -0.492188 5.546875 -0.921875 C 4.617188 -1.359375 3.785156 -1.789062 3.046875 -2.21875 C 2.304688 -2.644531 1.765625 -3 1.421875 -3.28125 L 0.90625 -3.71875 L 4.640625 -9.984375 C 4.953125 -9.722656 5.382812 -9.382812 5.9375 -8.96875 C 6.5 -8.5625 7.484375 -8.015625 8.890625 -7.328125 C 10.304688 -6.640625 11.554688 -6.296875 12.640625 -6.296875 C 15.785156 -6.296875 17.359375 -7.367188 17.359375 -9.515625 C 17.359375 -9.960938 17.242188 -10.375 17.015625 -10.75 C 16.796875 -11.132812 16.398438 -11.519531 15.828125 -11.90625 C 15.265625 -12.289062 14.765625 -12.59375 14.328125 -12.8125 C 13.890625 -13.039062 13.175781 -13.382812 12.1875 -13.84375 C 11.195312 -14.3125 10.460938 -14.664062 9.984375 -14.90625 C 8.003906 -15.875 6.472656 -17.09375 5.390625 -18.5625 C 4.304688 -20.03125 3.765625 -21.609375 3.765625 -23.296875 C 3.765625 -26.234375 4.847656 -28.628906 7.015625 -30.484375 C 9.179688 -32.347656 11.648438 -33.28125 14.421875 -33.28125 Z M 14.421875 -33.28125 "/></g></g></g><g clip-path="url(#55063e2940)"><path fill="#ffffff" d="M 44.417969 11.660156 C 42.097656 5.0625 33.800781 2.589844 28.246094 7.113281 C 26.351562 2.816406 22.070312 -0.0078125 17.316406 -0.0078125 C 7.960938 -0.0078125 2.320312 10.265625 7.078125 18.117188 C 3.707031 18.652344 1.121094 21.585938 1.121094 25.101562 C 1.121094 29.003906 4.292969 32.175781 8.195312 32.175781 L 12.5625 32.175781 C 12.902344 32.175781 13.179688 31.898438 13.179688 31.558594 C 13.179688 31.214844 12.902344 30.9375 12.5625 30.9375 L 8.195312 30.9375 C 4.976562 30.9375 2.359375 28.320312 2.359375 25.101562 C 2.359375 20.121094 8.25 17.414062 12.007812 20.714844 C 12.265625 20.9375 12.65625 20.914062 12.882812 20.65625 C 13.105469 20.402344 13.082031 20.007812 12.824219 19.785156 C 11.625 18.730469 10.105469 18.121094 8.515625 18.042969 C 3.625 11.011719 8.648438 1.230469 17.316406 1.230469 C 21.847656 1.230469 25.90625 4.097656 27.414062 8.371094 C 27.566406 8.800781 28.109375 8.917969 28.429688 8.609375 C 33.101562 4.070312 40.839844 5.851562 43.152344 11.804688 C 41.136719 12.15625 39.269531 13.089844 37.773438 14.539062 C 37.527344 14.777344 37.519531 15.167969 37.757812 15.414062 C 38 15.664062 38.390625 15.664062 38.632812 15.429688 C 40.402344 13.714844 42.679688 12.886719 44.921875 12.886719 C 49.898438 12.886719 53.949219 16.933594 53.949219 21.90625 C 53.949219 26.886719 49.898438 30.9375 44.921875 30.9375 L 42.921875 30.9375 C 42.582031 30.9375 42.304688 31.214844 42.304688 31.558594 C 42.304688 31.898438 42.582031 32.175781 42.921875 32.175781 L 44.921875 32.175781 C 50.582031 32.175781 55.1875 27.570312 55.1875 21.90625 C 55.1875 15.992188 50.160156 11.378906 44.417969 11.660156 Z M 44.417969 11.660156 " fill-opacity="1" fill-rule="nonzero"/></g><path fill="#ffffff" d="M 17.921875 4.953125 C 17.914062 4.617188 17.640625 4.347656 17.300781 4.347656 C 16.960938 4.429688 13.070312 4.105469 11.4375 7.714844 C 11.296875 8.027344 11.433594 8.394531 11.746094 8.535156 C 12.054688 8.675781 12.421875 8.539062 12.566406 8.226562 C 13.347656 6.492188 14.902344 5.625 17.3125 5.585938 C 17.65625 5.578125 17.925781 5.296875 17.921875 4.953125 Z M 17.921875 4.953125 " fill-opacity="1" fill-rule="nonzero"/><path fill="#ffffff" d="M 37.683594 29.785156 L 37.683594 25.746094 C 37.683594 25.128906 37.9375 24.515625 38.386719 24.070312 L 39.277344 23.179688 C 39.515625 22.9375 39.515625 22.546875 39.277344 22.304688 C 39.035156 22.0625 38.640625 22.0625 38.398438 22.304688 L 37.507812 23.195312 C 36.832031 23.871094 36.445312 24.800781 36.445312 25.746094 L 36.445312 29.785156 C 36.445312 30.125 36.722656 30.402344 37.0625 30.402344 C 37.40625 30.402344 37.683594 30.125 37.683594 29.785156 Z M 37.683594 29.785156 " fill-opacity="1" fill-rule="nonzero"/><path fill="#ffffff" d="M 30.5 29.074219 C 30.84375 29.074219 31.121094 28.796875 31.121094 28.453125 L 31.121094 24.277344 C 31.121094 22.894531 29.992188 21.769531 28.601562 21.769531 L 28.125 21.769531 C 27.417969 21.769531 26.84375 21.195312 26.84375 20.488281 L 26.84375 19.523438 C 26.84375 19.183594 26.566406 18.90625 26.226562 18.90625 C 25.882812 18.90625 25.605469 19.183594 25.605469 19.523438 L 25.605469 20.488281 C 25.605469 21.878906 26.734375 23.007812 28.125 23.007812 L 28.601562 23.007812 C 29.308594 23.007812 29.882812 23.578125 29.882812 24.277344 L 29.882812 28.453125 C 29.882812 28.796875 30.160156 29.074219 30.5 29.074219 Z M 30.5 29.074219 " fill-opacity="1" fill-rule="nonzero"/><path fill="#ffffff" d="M 21.320312 25.449219 L 21.320312 29.082031 C 21.320312 29.421875 21.597656 29.699219 21.9375 29.699219 C 22.28125 29.699219 22.558594 29.421875 22.558594 29.082031 L 22.558594 24.828125 C 22.558594 24.488281 22.28125 24.210938 21.9375 24.210938 L 16.492188 24.210938 C 16.148438 24.210938 15.871094 24.488281 15.871094 24.828125 C 15.871094 25.171875 16.148438 25.449219 16.492188 25.449219 Z M 21.320312 25.449219 " fill-opacity="1" fill-rule="nonzero"/><path fill="#ffffff" d="M 44.152344 19.386719 C 44.152344 18.132812 43.132812 17.117188 41.882812 17.117188 C 40.628906 17.117188 39.609375 18.132812 39.609375 19.386719 C 39.609375 20.636719 40.628906 21.65625 41.882812 21.65625 C 43.132812 21.65625 44.152344 20.636719 44.152344 19.386719 Z M 40.847656 19.386719 C 40.847656 18.816406 41.3125 18.355469 41.882812 18.355469 C 42.449219 18.355469 42.914062 18.816406 42.914062 19.386719 C 42.914062 19.953125 42.449219 20.417969 41.882812 20.417969 C 41.3125 20.417969 40.847656 19.953125 40.847656 19.386719 Z M 40.847656 19.386719 " fill-opacity="1" fill-rule="nonzero"/><path fill="#ffffff" d="M 26.222656 12.714844 C 24.972656 12.714844 23.953125 13.730469 23.953125 14.984375 C 23.953125 16.234375 24.972656 17.253906 26.222656 17.253906 C 27.476562 17.253906 28.492188 16.234375 28.492188 14.984375 C 28.492188 13.730469 27.476562 12.714844 26.222656 12.714844 Z M 26.222656 16.015625 C 25.65625 16.015625 25.191406 15.554688 25.191406 14.984375 C 25.191406 14.414062 25.65625 13.953125 26.222656 13.953125 C 26.792969 13.953125 27.253906 14.414062 27.253906 14.984375 C 27.253906 15.554688 26.792969 16.015625 26.222656 16.015625 Z M 26.222656 16.015625 " fill-opacity="1" fill-rule="nonzero"/><path fill="#ffffff" d="M 11.945312 22.5625 C 10.695312 22.5625 9.675781 23.578125 9.675781 24.832031 C 9.675781 26.082031 10.695312 27.101562 11.945312 27.101562 C 13.199219 27.101562 14.21875 26.082031 14.21875 24.832031 C 14.21875 23.578125 13.199219 22.5625 11.945312 22.5625 Z M 11.945312 25.863281 C 11.378906 25.863281 10.914062 25.402344 10.914062 24.832031 C 10.914062 24.261719 11.378906 23.800781 11.945312 23.800781 C 12.515625 23.800781 12.980469 24.261719 12.980469 24.832031 C 12.980469 25.402344 12.515625 25.863281 11.945312 25.863281 Z M 11.945312 25.863281 " fill-opacity="1" fill-rule="nonzero"/><path fill="#ffffff" d="M 41.054688 37.089844 C 41.054688 37.082031 41.058594 37.074219 41.058594 37.0625 C 41.046875 36.980469 40.742188 35.035156 38.605469 33.175781 C 36.421875 31.277344 33.867188 31.699219 33.757812 31.71875 C 33.703125 31.730469 33.65625 31.753906 33.609375 31.777344 C 32.324219 30.832031 31.066406 30.660156 29.492188 30.742188 C 29.152344 30.761719 28.890625 31.054688 28.910156 31.394531 C 28.929688 31.738281 29.246094 32.003906 29.5625 31.980469 C 29.847656 31.964844 30.175781 31.957031 30.542969 31.972656 C 32.875 32.054688 33.929688 33.871094 33.972656 33.945312 C 34.136719 34.246094 34.511719 34.355469 34.8125 34.1875 C 35.113281 34.023438 35.21875 33.648438 35.054688 33.347656 C 35.039062 33.320312 34.945312 33.152344 34.757812 32.910156 C 35.523438 32.945312 36.714844 33.171875 37.792969 34.109375 C 38.738281 34.933594 39.25 35.761719 39.523438 36.359375 C 39.316406 36.3125 39.109375 36.261719 38.890625 36.246094 C 38.558594 36.214844 38.25 36.46875 38.222656 36.808594 C 38.195312 37.148438 38.445312 37.449219 38.789062 37.476562 C 39.601562 37.546875 40.304688 37.925781 40.871094 38.609375 C 42.15625 40.15625 41.589844 42.175781 40.714844 43.4375 C 40.429688 43.851562 40.730469 44.410156 41.222656 44.410156 C 41.417969 44.410156 41.613281 44.316406 41.734375 44.144531 C 43.339844 41.828125 43.355469 38.855469 41.054688 37.089844 Z M 41.054688 37.089844 " fill-opacity="1" fill-rule="nonzero"/><path fill="#ffffff" d="M 22.363281 44.230469 C 19.492188 44.109375 17.964844 43.273438 17.546875 41.597656 C 16.894531 38.964844 18.117188 37.371094 18.902344 36.660156 C 19.089844 36.492188 19.378906 36.316406 19.660156 36.164062 C 19.839844 37.261719 20.476562 38.066406 20.515625 38.109375 C 20.730469 38.375 21.121094 38.414062 21.382812 38.203125 C 21.652344 37.984375 21.691406 37.597656 21.476562 37.332031 C 21.46875 37.320312 20.664062 36.285156 20.886719 35.203125 C 21.035156 34.496094 21.601562 33.875 22.574219 33.367188 C 25.808594 31.671875 27.84375 33.457031 27.925781 33.53125 C 28.179688 33.765625 28.570312 33.75 28.800781 33.496094 C 29.035156 33.246094 29.019531 32.855469 28.765625 32.621094 C 28.65625 32.519531 26.027344 30.15625 21.996094 32.269531 C 20.765625 32.914062 20.011719 33.75 19.730469 34.746094 C 19.378906 34.90625 18.570312 35.296875 18.074219 35.738281 C 17.277344 36.464844 15.507812 38.515625 16.347656 41.894531 C 17.179688 45.25 21.042969 45.414062 22.3125 45.46875 C 22.613281 45.496094 22.941406 45.238281 22.957031 44.875 C 22.96875 44.535156 22.703125 44.246094 22.363281 44.230469 Z M 22.363281 44.230469 " fill-opacity="1" fill-rule="nonzero"/><g clip-path="url(#72111b514a)"><path fill="#ffffff" d="M 38.960938 42.300781 C 38.625 42.363281 38.40625 42.6875 38.46875 43.023438 C 38.558594 43.496094 38.671875 44.980469 38.019531 45.570312 C 37.078125 46.414062 36.148438 46.753906 36.140625 46.757812 C 35.925781 46.832031 35.769531 47.019531 35.734375 47.242188 C 35.726562 47.289062 35.554688 48.402344 35.914062 49.34375 C 35.964844 49.503906 36.140625 50.339844 36.207031 50.503906 C 36.261719 50.632812 36.152344 50.773438 36.011719 50.773438 C 34.546875 50.734375 34.867188 50.976562 34.429688 50.226562 C 33.816406 49.171875 32.789062 47.40625 31.667969 46.773438 C 31.5 46.683594 31.285156 46.570312 31.046875 46.445312 C 31.65625 46.066406 32.238281 45.46875 32.71875 44.496094 C 33.957031 41.996094 34.503906 41.210938 35.515625 41.175781 C 36.648438 41.128906 37.230469 41.875 37.25 41.898438 C 37.464844 42.167969 37.851562 42.214844 38.121094 42 C 38.390625 41.789062 38.433594 41.398438 38.222656 41.132812 C 38.179688 41.078125 37.203125 39.890625 35.46875 39.9375 C 33.652344 40.003906 32.816406 41.503906 31.609375 43.945312 C 30.601562 45.984375 29.242188 45.867188 27.808594 45.746094 C 26.574219 45.640625 24.199219 44.125 24.0625 41.605469 C 23.976562 39.996094 25.101562 39.042969 27.578125 38.601562 C 27.804688 38.730469 28.023438 38.878906 28.066406 38.9375 C 28.09375 39.007812 28.082031 39.230469 28.039062 39.390625 C 27.921875 39.789062 28.226562 40.179688 28.632812 40.179688 C 28.902344 40.179688 29.148438 40.003906 29.226562 39.734375 C 29.261719 39.609375 29.429688 38.96875 29.199219 38.441406 C 29.148438 38.320312 29.0625 38.207031 28.964844 38.101562 C 29.753906 37.550781 29.90625 36.757812 29.914062 36.710938 C 29.96875 36.375 29.738281 36.054688 29.402344 36 C 29.066406 35.941406 28.746094 36.175781 28.691406 36.511719 C 28.691406 36.519531 28.554688 37.183594 27.578125 37.339844 C 24.296875 37.867188 22.699219 39.324219 22.828125 41.675781 C 23.003906 44.941406 26.046875 46.835938 27.699219 46.980469 C 28.332031 47.035156 28.773438 47.066406 29.359375 47.007812 C 30.097656 47.34375 30.695312 47.652344 31.0625 47.855469 C 32.050781 48.414062 33.261719 50.722656 33.652344 51.339844 C 33.914062 51.761719 34.375 52.011719 34.878906 52.011719 L 36.011719 52.011719 C 37.035156 52.011719 37.734375 50.96875 37.367188 50.066406 C 37.320312 49.917969 37.136719 49.082031 37.082031 48.929688 C 36.929688 48.53125 36.917969 48.070312 36.929688 47.765625 C 37.359375 47.566406 38.097656 47.160156 38.851562 46.488281 C 40.125 45.328125 39.734375 43.050781 39.683594 42.792969 C 39.621094 42.457031 39.296875 42.230469 38.960938 42.300781 Z M 38.960938 42.300781 " fill-opacity="1" fill-rule="nonzero"/></g><path fill="#ffffff" d="M 32.265625 34.652344 C 31.925781 34.582031 31.605469 34.808594 31.539062 35.144531 C 31.410156 35.820312 31.515625 37.257812 32.851562 37.871094 C 33.230469 38.042969 33.597656 38.109375 33.933594 38.109375 C 35.003906 38.109375 35.773438 37.429688 35.816406 37.394531 C 36.070312 37.164062 36.09375 36.773438 35.863281 36.519531 C 35.636719 36.261719 35.246094 36.242188 34.988281 36.472656 C 34.984375 36.480469 34.234375 37.140625 33.367188 36.742188 C 32.601562 36.394531 32.738281 35.480469 32.757812 35.375 C 32.820312 35.039062 32.597656 34.714844 32.265625 34.652344 Z M 32.265625 34.652344 " fill-opacity="1" fill-rule="nonzero"/></svg>