<svg xmlns="http://www.w3.org/2000/svg" xmlns:xlink="http://www.w3.org/1999/xlink" width="309" zoomAndPan="magnify" viewBox="0 0 231.75 52.499999" height="70" preserveAspectRatio="xMidYMid meet" version="1.0"><defs><g/><clipPath id="939956b919"><path d="M 3.617188 9.234375 L 37.59375 9.234375 L 37.59375 43.210938 L 3.617188 43.210938 Z M 3.617188 9.234375 " clip-rule="nonzero"/></clipPath><clipPath id="35ef24735f"><path d="M 20.605469 9.234375 C 11.222656 9.234375 3.617188 16.839844 3.617188 26.222656 C 3.617188 35.605469 11.222656 43.210938 20.605469 43.210938 C 29.988281 43.210938 37.59375 35.605469 37.59375 26.222656 C 37.59375 16.839844 29.988281 9.234375 20.605469 9.234375 Z M 20.605469 9.234375 " clip-rule="nonzero"/></clipPath><clipPath id="e3765739ff"><path d="M 0.617188 0.234375 L 34.59375 0.234375 L 34.59375 34.210938 L 0.617188 34.210938 Z M 0.617188 0.234375 " clip-rule="nonzero"/></clipPath><clipPath id="a64f78d974"><path d="M 17.605469 0.234375 C 8.222656 0.234375 0.617188 7.839844 0.617188 17.222656 C 0.617188 26.605469 8.222656 34.210938 17.605469 34.210938 C 26.988281 34.210938 34.59375 26.605469 34.59375 17.222656 C 34.59375 7.839844 26.988281 0.234375 17.605469 0.234375 Z M 17.605469 0.234375 " clip-rule="nonzero"/></clipPath><clipPath id="e2577621be"><rect x="0" width="35" y="0" height="35"/></clipPath><clipPath id="3325c6ed95"><path d="M 10.730469 18.460938 L 13.617188 18.460938 L 13.617188 33.960938 L 10.730469 33.960938 Z M 10.730469 18.460938 " clip-rule="nonzero"/></clipPath><clipPath id="6a98a2f091"><path d="M 10.730469 32.519531 L 10.730469 19.910156 C 10.730469 19.527344 10.882812 19.160156 11.152344 18.890625 C 11.425781 18.617188 11.792969 18.46875 12.175781 18.46875 C 12.558594 18.46875 12.925781 18.617188 13.195312 18.890625 C 13.464844 19.160156 13.617188 19.527344 13.617188 19.910156 L 13.617188 32.519531 C 13.617188 32.902344 13.464844 33.265625 13.195312 33.539062 C 12.925781 33.808594 12.558594 33.960938 12.175781 33.960938 C 11.792969 33.960938 11.425781 33.808594 11.152344 33.539062 C 10.882812 33.265625 10.730469 32.902344 10.730469 32.519531 Z M 10.730469 32.519531 " clip-rule="nonzero"/></clipPath><clipPath id="f412ccc1ea"><path d="M 0.730469 0.460938 L 3.617188 0.460938 L 3.617188 15.960938 L 0.730469 15.960938 Z M 0.730469 0.460938 " clip-rule="nonzero"/></clipPath><clipPath id="04b3035f34"><path d="M 0.730469 14.519531 L 0.730469 1.910156 C 0.730469 1.527344 0.882812 1.160156 1.152344 0.890625 C 1.425781 0.617188 1.792969 0.46875 2.175781 0.46875 C 2.558594 0.46875 2.925781 0.617188 3.195312 0.890625 C 3.464844 1.160156 3.617188 1.527344 3.617188 1.910156 L 3.617188 14.519531 C 3.617188 14.902344 3.464844 15.265625 3.195312 15.539062 C 2.925781 15.808594 2.558594 15.960938 2.175781 15.960938 C 1.792969 15.960938 1.425781 15.808594 1.152344 15.539062 C 0.882812 15.265625 0.730469 14.902344 0.730469 14.519531 Z M 0.730469 14.519531 " clip-rule="nonzero"/></clipPath><clipPath id="7452853c8c"><rect x="0" width="4" y="0" height="16"/></clipPath><clipPath id="4bc4c2f1f7"><path d="M 14.976562 22.597656 L 17.863281 22.597656 L 17.863281 33.960938 L 14.976562 33.960938 Z M 14.976562 22.597656 " clip-rule="nonzero"/></clipPath><clipPath id="35833dad24"><path d="M 14.976562 32.515625 L 14.976562 24.042969 C 14.976562 23.660156 15.128906 23.292969 15.398438 23.019531 C 15.671875 22.75 16.039062 22.597656 16.421875 22.597656 C 16.804688 22.597656 17.167969 22.75 17.441406 23.019531 C 17.710938 23.292969 17.863281 23.660156 17.863281 24.042969 L 17.863281 32.515625 C 17.863281 32.898438 17.710938 33.265625 17.441406 33.539062 C 17.167969 33.808594 16.804688 33.960938 16.421875 33.960938 C 16.039062 33.960938 15.671875 33.808594 15.398438 33.539062 C 15.128906 33.265625 14.976562 32.898438 14.976562 32.515625 Z M 14.976562 32.515625 " clip-rule="nonzero"/></clipPath><clipPath id="c540950525"><path d="M 0.976562 0.597656 L 3.863281 0.597656 L 3.863281 11.960938 L 0.976562 11.960938 Z M 0.976562 0.597656 " clip-rule="nonzero"/></clipPath><clipPath id="ecef0f199e"><path d="M 0.976562 10.515625 L 0.976562 2.042969 C 0.976562 1.660156 1.128906 1.292969 1.398438 1.019531 C 1.671875 0.75 2.039062 0.597656 2.421875 0.597656 C 2.804688 0.597656 3.167969 0.75 3.441406 1.019531 C 3.710938 1.292969 3.863281 1.660156 3.863281 2.042969 L 3.863281 10.515625 C 3.863281 10.898438 3.710938 11.265625 3.441406 11.539062 C 3.167969 11.808594 2.804688 11.960938 2.421875 11.960938 C 2.039062 11.960938 1.671875 11.808594 1.398438 11.539062 C 1.128906 11.265625 0.976562 10.898438 0.976562 10.515625 Z M 0.976562 10.515625 " clip-rule="nonzero"/></clipPath><clipPath id="1c19c92675"><rect x="0" width="4" y="0" height="12"/></clipPath><clipPath id="1cc4f491d4"><path d="M 19.160156 18.460938 L 22.046875 18.460938 L 22.046875 33.960938 L 19.160156 33.960938 Z M 19.160156 18.460938 " clip-rule="nonzero"/></clipPath><clipPath id="503325514e"><path d="M 19.160156 32.519531 L 19.160156 19.910156 C 19.160156 19.527344 19.3125 19.160156 19.585938 18.890625 C 19.855469 18.617188 20.222656 18.46875 20.605469 18.46875 C 20.988281 18.46875 21.355469 18.617188 21.625 18.890625 C 21.894531 19.160156 22.046875 19.527344 22.046875 19.910156 L 22.046875 32.519531 C 22.046875 32.902344 21.894531 33.265625 21.625 33.539062 C 21.355469 33.808594 20.988281 33.960938 20.605469 33.960938 C 20.222656 33.960938 19.855469 33.808594 19.585938 33.539062 C 19.3125 33.265625 19.160156 32.902344 19.160156 32.519531 Z M 19.160156 32.519531 " clip-rule="nonzero"/></clipPath><clipPath id="6859c0815c"><path d="M 0.160156 0.460938 L 3.046875 0.460938 L 3.046875 15.960938 L 0.160156 15.960938 Z M 0.160156 0.460938 " clip-rule="nonzero"/></clipPath><clipPath id="d723d14c24"><path d="M 0.160156 14.519531 L 0.160156 1.910156 C 0.160156 1.527344 0.3125 1.160156 0.585938 0.890625 C 0.855469 0.617188 1.222656 0.46875 1.605469 0.46875 C 1.988281 0.46875 2.355469 0.617188 2.625 0.890625 C 2.894531 1.160156 3.046875 1.527344 3.046875 1.910156 L 3.046875 14.519531 C 3.046875 14.902344 2.894531 15.265625 2.625 15.539062 C 2.355469 15.808594 1.988281 15.960938 1.605469 15.960938 C 1.222656 15.960938 0.855469 15.808594 0.585938 15.539062 C 0.3125 15.265625 0.160156 14.902344 0.160156 14.519531 Z M 0.160156 14.519531 " clip-rule="nonzero"/></clipPath><clipPath id="5bc3f560a9"><rect x="0" width="4" y="0" height="16"/></clipPath><clipPath id="b0d6319478"><path d="M 23.195312 22.597656 L 26.082031 22.597656 L 26.082031 33.960938 L 23.195312 33.960938 Z M 23.195312 22.597656 " clip-rule="nonzero"/></clipPath><clipPath id="258ed6c155"><path d="M 23.195312 32.515625 L 23.195312 24.042969 C 23.195312 23.660156 23.347656 23.292969 23.617188 23.019531 C 23.886719 22.75 24.253906 22.597656 24.636719 22.597656 C 25.019531 22.597656 25.386719 22.75 25.65625 23.019531 C 25.929688 23.292969 26.082031 23.660156 26.082031 24.042969 L 26.082031 32.515625 C 26.082031 32.898438 25.929688 33.265625 25.65625 33.539062 C 25.386719 33.808594 25.019531 33.960938 24.636719 33.960938 C 24.253906 33.960938 23.886719 33.808594 23.617188 33.539062 C 23.347656 33.265625 23.195312 32.898438 23.195312 32.515625 Z M 23.195312 32.515625 " clip-rule="nonzero"/></clipPath><clipPath id="ea960b5b15"><path d="M 0.195312 0.597656 L 3.082031 0.597656 L 3.082031 11.960938 L 0.195312 11.960938 Z M 0.195312 0.597656 " clip-rule="nonzero"/></clipPath><clipPath id="6acdfdb344"><path d="M 0.195312 10.515625 L 0.195312 2.042969 C 0.195312 1.660156 0.347656 1.292969 0.617188 1.019531 C 0.886719 0.75 1.253906 0.597656 1.636719 0.597656 C 2.019531 0.597656 2.386719 0.75 2.65625 1.019531 C 2.929688 1.292969 3.082031 1.660156 3.082031 2.042969 L 3.082031 10.515625 C 3.082031 10.898438 2.929688 11.265625 2.65625 11.539062 C 2.386719 11.808594 2.019531 11.960938 1.636719 11.960938 C 1.253906 11.960938 0.886719 11.808594 0.617188 11.539062 C 0.347656 11.265625 0.195312 10.898438 0.195312 10.515625 Z M 0.195312 10.515625 " clip-rule="nonzero"/></clipPath><clipPath id="5bd9ed941a"><rect x="0" width="4" y="0" height="12"/></clipPath><clipPath id="efff4673b6"><path d="M 27.230469 18.460938 L 30.113281 18.460938 L 30.113281 33.960938 L 27.230469 33.960938 Z M 27.230469 18.460938 " clip-rule="nonzero"/></clipPath><clipPath id="fb5f21f21d"><path d="M 27.230469 32.519531 L 27.230469 19.910156 C 27.230469 19.527344 27.382812 19.160156 27.652344 18.890625 C 27.921875 18.617188 28.289062 18.46875 28.671875 18.46875 C 29.054688 18.46875 29.421875 18.617188 29.691406 18.890625 C 29.960938 19.160156 30.113281 19.527344 30.113281 19.910156 L 30.113281 32.519531 C 30.113281 32.902344 29.960938 33.265625 29.691406 33.539062 C 29.421875 33.808594 29.054688 33.960938 28.671875 33.960938 C 28.289062 33.960938 27.921875 33.808594 27.652344 33.539062 C 27.382812 33.265625 27.230469 32.902344 27.230469 32.519531 Z M 27.230469 32.519531 " clip-rule="nonzero"/></clipPath><clipPath id="7b5e4d5380"><path d="M 0.230469 0.460938 L 3.113281 0.460938 L 3.113281 15.960938 L 0.230469 15.960938 Z M 0.230469 0.460938 " clip-rule="nonzero"/></clipPath><clipPath id="11d3971209"><path d="M 0.230469 14.519531 L 0.230469 1.910156 C 0.230469 1.527344 0.382812 1.160156 0.652344 0.890625 C 0.921875 0.617188 1.289062 0.46875 1.671875 0.46875 C 2.054688 0.46875 2.421875 0.617188 2.691406 0.890625 C 2.960938 1.160156 3.113281 1.527344 3.113281 1.910156 L 3.113281 14.519531 C 3.113281 14.902344 2.960938 15.265625 2.691406 15.539062 C 2.421875 15.808594 2.054688 15.960938 1.671875 15.960938 C 1.289062 15.960938 0.921875 15.808594 0.652344 15.539062 C 0.382812 15.265625 0.230469 14.902344 0.230469 14.519531 Z M 0.230469 14.519531 " clip-rule="nonzero"/></clipPath><clipPath id="1154527c67"><rect x="0" width="4" y="0" height="16"/></clipPath><clipPath id="9c29924288"><rect x="0" width="85" y="0" height="34"/></clipPath><clipPath id="4c2331b6a2"><rect x="0" width="120" y="0" height="35"/></clipPath></defs><g clip-path="url(#939956b919)"><g clip-path="url(#35ef24735f)"><g transform="matrix(1, 0, 0, 1, 3, 9)"><g clip-path="url(#e2577621be)"><g clip-path="url(#e3765739ff)"><g clip-path="url(#a64f78d974)"><path fill="#ffffff" d="M 0.617188 0.234375 L 34.59375 0.234375 L 34.59375 34.210938 L 0.617188 34.210938 Z M 0.617188 0.234375 " fill-opacity="1" fill-rule="nonzero"/></g></g></g></g></g></g><g clip-path="url(#3325c6ed95)"><g clip-path="url(#6a98a2f091)"><g transform="matrix(1, 0, 0, 1, 10, 18)"><g clip-path="url(#7452853c8c)"><g clip-path="url(#f412ccc1ea)"><g clip-path="url(#04b3035f34)"><path fill="#0f1431" d="M 0.730469 15.960938 L 0.730469 0.472656 L 3.617188 0.472656 L 3.617188 15.960938 Z M 0.730469 15.960938 " fill-opacity="1" fill-rule="nonzero"/></g></g></g></g></g></g><g clip-path="url(#4bc4c2f1f7)"><g clip-path="url(#35833dad24)"><g transform="matrix(1, 0, 0, 1, 14, 22)"><g clip-path="url(#1c19c92675)"><g clip-path="url(#c540950525)"><g clip-path="url(#ecef0f199e)"><path fill="#0f1431" d="M 0.976562 11.960938 L 0.976562 0.597656 L 3.863281 0.597656 L 3.863281 11.960938 Z M 0.976562 11.960938 " fill-opacity="1" fill-rule="nonzero"/></g></g></g></g></g></g><g clip-path="url(#1cc4f491d4)"><g clip-path="url(#503325514e)"><g transform="matrix(1, 0, 0, 1, 19, 18)"><g clip-path="url(#5bc3f560a9)"><g clip-path="url(#6859c0815c)"><g clip-path="url(#d723d14c24)"><path fill="#0f1431" d="M 0.160156 15.960938 L 0.160156 0.472656 L 3.046875 0.472656 L 3.046875 15.960938 Z M 0.160156 15.960938 " fill-opacity="1" fill-rule="nonzero"/></g></g></g></g></g></g><g clip-path="url(#b0d6319478)"><g clip-path="url(#258ed6c155)"><g transform="matrix(1, 0, 0, 1, 23, 22)"><g clip-path="url(#5bd9ed941a)"><g clip-path="url(#ea960b5b15)"><g clip-path="url(#6acdfdb344)"><path fill="#0f1431" d="M 0.195312 11.960938 L 0.195312 0.597656 L 3.082031 0.597656 L 3.082031 11.960938 Z M 0.195312 11.960938 " fill-opacity="1" fill-rule="nonzero"/></g></g></g></g></g></g><g clip-path="url(#efff4673b6)"><g clip-path="url(#fb5f21f21d)"><g transform="matrix(1, 0, 0, 1, 27, 18)"><g clip-path="url(#1154527c67)"><g clip-path="url(#7b5e4d5380)"><g clip-path="url(#11d3971209)"><path fill="#0f1431" d="M 0.230469 15.960938 L 0.230469 0.472656 L 3.113281 0.472656 L 3.113281 15.960938 Z M 0.230469 15.960938 " fill-opacity="1" fill-rule="nonzero"/></g></g></g></g></g></g><g transform="matrix(1, 0, 0, 1, 39, 11)"><g clip-path="url(#9c29924288)"><g fill="#ffffff" fill-opacity="1"><g transform="translate(3.032186, 22.351732)"><g><path d="M 12.359375 -21.28125 L 20.953125 0 L 15.734375 0 L 14.15625 -4.25 L 6.0625 -4.25 L 4.484375 0 L -0.71875 0 L 7.875 -21.28125 Z M 12.515625 -8.515625 L 10.140625 -14.703125 L 10.09375 -14.703125 L 7.71875 -8.515625 Z M 12.515625 -8.515625 "/></g></g></g><g fill="#ffffff" fill-opacity="1"><g transform="translate(23.260053, 22.351732)"><g><path d="M 6.390625 -21.28125 L 6.390625 -4.25 L 13.71875 -4.25 L 13.71875 0 L 1.546875 0 L 1.546875 -21.28125 Z M 6.390625 -21.28125 "/></g></g></g><g fill="#ffffff" fill-opacity="1"><g transform="translate(37.837527, 22.351732)"><g><path d="M 6.390625 -21.28125 L 6.390625 -4.25 L 13.71875 -4.25 L 13.71875 0 L 1.546875 0 L 1.546875 -21.28125 Z M 6.390625 -21.28125 "/></g></g></g><g fill="#ffffff" fill-opacity="1"><g transform="translate(52.415001, 22.351732)"><g><path d="M 0.203125 -17.03125 L 0.203125 -21.28125 L 15.171875 -21.28125 L 15.171875 -17.03125 L 10.109375 -17.03125 L 10.109375 0 L 5.265625 0 L 5.265625 -17.03125 Z M 0.203125 -17.03125 "/></g></g></g><g fill="#ffffff" fill-opacity="1"><g transform="translate(67.792316, 22.351732)"><g><path d="M 6.390625 -21.28125 L 6.390625 0 L 1.546875 0 L 1.546875 -21.28125 Z M 6.390625 -21.28125 "/></g></g></g><g fill="#ffffff" fill-opacity="1"><g transform="translate(75.764543, 22.351732)"><g/></g></g></g></g><g transform="matrix(1, 0, 0, 1, 109, 6)"><g clip-path="url(#4c2331b6a2)"><g fill="#ffffff" fill-opacity="1"><g transform="translate(0.944722, 27.074384)"><g><path d="M 9.609375 -14.609375 C 8.210938 -14.609375 7.128906 -14.085938 6.359375 -13.046875 C 5.597656 -12.003906 5.21875 -10.546875 5.21875 -8.671875 C 5.21875 -4.785156 6.679688 -2.84375 9.609375 -2.84375 C 10.828125 -2.84375 12.3125 -3.148438 14.0625 -3.765625 L 14.0625 -0.65625 C 12.625 -0.0625 11.023438 0.234375 9.265625 0.234375 C 6.722656 0.234375 4.78125 -0.53125 3.4375 -2.0625 C 2.09375 -3.601562 1.421875 -5.816406 1.421875 -8.703125 C 1.421875 -10.515625 1.75 -12.101562 2.40625 -13.46875 C 3.070312 -14.832031 4.019531 -15.878906 5.25 -16.609375 C 6.488281 -17.335938 7.941406 -17.703125 9.609375 -17.703125 C 11.296875 -17.703125 13 -17.289062 14.71875 -16.46875 L 13.515625 -13.453125 C 12.867188 -13.765625 12.210938 -14.035156 11.546875 -14.265625 C 10.890625 -14.492188 10.242188 -14.609375 9.609375 -14.609375 Z M 9.609375 -14.609375 "/></g></g></g><g fill="#ffffff" fill-opacity="1"><g transform="translate(16.512469, 27.074384)"><g><path d="M 18.03125 -8.75 C 18.03125 -5.863281 17.3125 -3.644531 15.875 -2.09375 C 14.445312 -0.539062 12.394531 0.234375 9.71875 0.234375 C 7.050781 0.234375 5 -0.539062 3.5625 -2.09375 C 2.132812 -3.644531 1.421875 -5.867188 1.421875 -8.765625 C 1.421875 -11.671875 2.140625 -13.890625 3.578125 -15.421875 C 5.015625 -16.953125 7.070312 -17.71875 9.75 -17.71875 C 12.425781 -17.71875 14.472656 -16.945312 15.890625 -15.40625 C 17.316406 -13.863281 18.03125 -11.644531 18.03125 -8.75 Z M 5.296875 -8.75 C 5.296875 -6.800781 5.664062 -5.332031 6.40625 -4.34375 C 7.144531 -3.351562 8.25 -2.859375 9.71875 -2.859375 C 12.675781 -2.859375 14.15625 -4.820312 14.15625 -8.75 C 14.15625 -12.675781 12.6875 -14.640625 9.75 -14.640625 C 8.28125 -14.640625 7.171875 -14.144531 6.421875 -13.15625 C 5.671875 -12.164062 5.296875 -10.695312 5.296875 -8.75 Z M 5.296875 -8.75 "/></g></g></g><g fill="#ffffff" fill-opacity="1"><g transform="translate(35.957242, 27.074384)"><g><path d="M 17.671875 0 L 12.96875 0 L 5.375 -13.203125 L 5.28125 -13.203125 C 5.425781 -10.867188 5.5 -9.203125 5.5 -8.203125 L 5.5 0 L 2.203125 0 L 2.203125 -17.4375 L 6.859375 -17.4375 L 14.4375 -4.375 L 14.515625 -4.375 C 14.398438 -6.644531 14.34375 -8.25 14.34375 -9.1875 L 14.34375 -17.4375 L 17.671875 -17.4375 Z M 17.671875 0 "/></g></g></g><g fill="#ffffff" fill-opacity="1"><g transform="translate(55.81954, 27.074384)"><g><path d="M 8.921875 0 L 5.21875 0 L 5.21875 -14.359375 L 0.484375 -14.359375 L 0.484375 -17.4375 L 13.65625 -17.4375 L 13.65625 -14.359375 L 8.921875 -14.359375 Z M 8.921875 0 "/></g></g></g><g fill="#ffffff" fill-opacity="1"><g transform="translate(69.9677, 27.074384)"><g><path d="M 5.890625 -9.703125 L 7.09375 -9.703125 C 8.257812 -9.703125 9.117188 -9.894531 9.671875 -10.28125 C 10.234375 -10.675781 10.515625 -11.289062 10.515625 -12.125 C 10.515625 -12.945312 10.226562 -13.535156 9.65625 -13.890625 C 9.09375 -14.242188 8.210938 -14.421875 7.015625 -14.421875 L 5.890625 -14.421875 Z M 5.890625 -6.6875 L 5.890625 0 L 2.203125 0 L 2.203125 -17.4375 L 7.28125 -17.4375 C 9.644531 -17.4375 11.394531 -17.003906 12.53125 -16.140625 C 13.675781 -15.285156 14.25 -13.976562 14.25 -12.21875 C 14.25 -11.1875 13.960938 -10.269531 13.390625 -9.46875 C 12.828125 -8.675781 12.03125 -8.050781 11 -7.59375 C 13.625 -3.675781 15.332031 -1.144531 16.125 0 L 12.03125 0 L 7.859375 -6.6875 Z M 5.890625 -6.6875 "/></g></g></g><g fill="#ffffff" fill-opacity="1"><g transform="translate(86.096125, 27.074384)"><g><path d="M 18.03125 -8.75 C 18.03125 -5.863281 17.3125 -3.644531 15.875 -2.09375 C 14.445312 -0.539062 12.394531 0.234375 9.71875 0.234375 C 7.050781 0.234375 5 -0.539062 3.5625 -2.09375 C 2.132812 -3.644531 1.421875 -5.867188 1.421875 -8.765625 C 1.421875 -11.671875 2.140625 -13.890625 3.578125 -15.421875 C 5.015625 -16.953125 7.070312 -17.71875 9.75 -17.71875 C 12.425781 -17.71875 14.472656 -16.945312 15.890625 -15.40625 C 17.316406 -13.863281 18.03125 -11.644531 18.03125 -8.75 Z M 5.296875 -8.75 C 5.296875 -6.800781 5.664062 -5.332031 6.40625 -4.34375 C 7.144531 -3.351562 8.25 -2.859375 9.71875 -2.859375 C 12.675781 -2.859375 14.15625 -4.820312 14.15625 -8.75 C 14.15625 -12.675781 12.6875 -14.640625 9.75 -14.640625 C 8.28125 -14.640625 7.171875 -14.144531 6.421875 -13.15625 C 5.671875 -12.164062 5.296875 -10.695312 5.296875 -8.75 Z M 5.296875 -8.75 "/></g></g></g><g fill="#ffffff" fill-opacity="1"><g transform="translate(105.540897, 27.074384)"><g><path d="M 2.203125 0 L 2.203125 -17.4375 L 5.890625 -17.4375 L 5.890625 -3.0625 L 12.96875 -3.0625 L 12.96875 0 Z M 2.203125 0 "/></g></g></g></g></g></svg>